/* XPM */
static char *closeA_big[] = {
/* columns rows colors chars-per-pixel */
"48 108 43 1 ",
"  c #27080B",
". c #28080B",
"X c #2A313C",
"o c #59222D",
"O c #5B222C",
"+ c #5C222D",
"@ c #7F2531",
"# c #673037",
"$ c #693137",
"% c #6A3137",
"& c #812430",
"* c #802530",
"= c #822430",
"- c #943B3F",
"; c #AF3839",
": c #B1393A",
"> c #B2393A",
", c #B43A3B",
"< c #B53B3C",
"1 c #C8333D",
"2 c #C8343D",
"3 c #C9343D",
"4 c #CA343D",
"5 c #933B40",
"6 c #963B40",
"7 c #973B40",
"8 c #C13F40",
"9 c #E13B42",
"0 c #E23B42",
"q c #E33B42",
"w c #E33B43",
"e c #E43B43",
"r c #E23C43",
"t c #E33C43",
"y c #E43C43",
"u c #E43C44",
"i c #D94748",
"p c #DA4849",
"a c #EE4C4E",
"s c #EE4C4F",
"d c #EE4F51",
"f c #ED5353",
"g c #EE5353",
/* pixels */
"XXXXXXXXXXXXXXXXXXXXXXXXXXXXXXXXXXXXXXXXXXXXXXXX",
"XXXXXXXXXXXXXXXXXXXXXXXXXXXXXXXXXXXXXXXXXXXXXXXX",
"XXXXXXXXXXXXXXXXXXXXXXXXXXXXXXXXXXXXXXXXXXXXXXXX",
"XXXXXXXXXXXXXXXXXXXXXXXXXXXXXXXXXXXXXXXXXXXXXXXX",
"XXXXXXXXXXXXXXXXXXXXXXXXXXXXXXXXXXXXXXXXXXXXXXXX",
"XXXXXXXXXXXXXXXXXXXXXXXXXXXXXXXXXXXXXXXXXXXXXXXX",
"XXXXXXXXXXXXXXXXXXXXXXXXXXXXXXXXXXXXXXXXXXXXXXXX",
"XXXXXXXXXXXXXXXXXXXXXXXXXXXXXXXXXXXXXXXXXXXXXXXX",
"XXXXXXXXXXXXXXXXXXXXXXXXXXXXXXXXXXXXXXXXXXXXXXXX",
"XXXXXXXXXXXXXXXXXXXXXXXXXXXXXXXXXXXXXXXXXXXXXXXX",
"XXXXXXXXXXXXXXXXXXXXXXXXXXXXXXXXXXXXXXXXXXXXXXXX",
"XXXXXXXXXXXXXXXXXXXXXXXXXXXXXXXXXXXXXXXXXXXXXXXX",
"XXXXXXXXXXXXXXXXXX66gggggggg66XXXXXXXXXXXXXXXXXX",
"XXXXXXXXXXXXXXXXXX66gggggggg66XXXXXXXXXXXXXXXXXX",
"XXXXXXXXXXXXXX%%gggggggggggggggg%%XXXXXXXXXXXXXX",
"XXXXXXXXXXXXXX%%gggggggggggggggg%%XXXXXXXXXXXXXX",
"XXXXXXXXXXXX%%gggggggggggggggggggg%%XXXXXXXXXXXX",
"XXXXXXXXXXXX%%gggggggggggggggggggg%%XXXXXXXXXXXX",
"XXXXXXXXXXXXggggggggggggggggggggggggXXXXXXXXXXXX",
"XXXXXXXXXXXXggggggggggggggggggggggggXXXXXXXXXXXX",
"XXXXXXXXXX66gggggggggggggggggggggggg--XXXXXXXXXX",
"XXXXXXXXXX66gggggggggggggggggggggggg--XXXXXXXXXX",
"XXXXXXXXXXggggggggggggggggggggggggggggXXXXXXXXXX",
"XXXXXXXXXXggggggggggggggggggggggggggggXXXXXXXXXX",
"XXXXXXXXXXggggggggggggggggggggggggggggXXXXXXXXXX",
"XXXXXXXXXXggggggggggggggggggggggggggggXXXXXXXXXX",
"XXXXXXXXXXggggggggggggggggggggggggggggXXXXXXXXXX",
"XXXXXXXXXXggggggggggggggggggggggggggggXXXXXXXXXX",
"XXXXXXXXXXggggggggggggggggggggggggggggXXXXXXXXXX",
"XXXXXXXXXXggggggggggggggggggggggggggggXXXXXXXXXX",
"XXXXXXXXXX66gggggggggggggggggggggggg55XXXXXXXXXX",
"XXXXXXXXXX66gggggggggggggggggggggggg55XXXXXXXXXX",
"XXXXXXXXXXXXggggggggggggggggggggggggXXXXXXXXXXXX",
"XXXXXXXXXXXXggggggggggggggggggggggggXXXXXXXXXXXX",
"XXXXXXXXXXXX%%gggggggggggggggggggg##XXXXXXXXXXXX",
"XXXXXXXXXXXX%%gggggggggggggggggggg##XXXXXXXXXXXX",
"XXXXXXXXXXXXXX%%gggggggggggggggg##XXXXXXXXXXXXXX",
"XXXXXXXXXXXXXX%%gggggggggggggggg##XXXXXXXXXXXXXX",
"XXXXXXXXXXXXXXXXXX--gggggggg55XXXXXXXXXXXXXXXXXX",
"XXXXXXXXXXXXXXXXXX--gggggggg55XXXXXXXXXXXXXXXXXX",
"XXXXXXXXXXXXXXXXXXXXXXXXXXXXXXXXXXXXXXXXXXXXXXXX",
"XXXXXXXXXXXXXXXXXXXXXXXXXXXXXXXXXXXXXXXXXXXXXXXX",
"XXXXXXXXXXXXXXXXXXXXXXXXXXXXXXXXXXXXXXXXXXXXXXXX",
"XXXXXXXXXXXXXXXXXXXXXXXXXXXXXXXXXXXXXXXXXXXXXXXX",
"XXXXXXXXXXXXXXXXXXXXXXXXXXXXXXXXXXXXXXXXXXXXXXXX",
"XXXXXXXXXXXXXXXXXXXXXXXXXXXXXXXXXXXXXXXXXXXXXXXX",
"XXXXXXXXXXXXXXXXXXXXXXXXXXXXXXXXXXXXXXXXXXXXXXXX",
"XXXXXXXXXXXXXXXXXXXXXXXXXXXXXXXXXXXXXXXXXXXXXXXX",
"XXXXXXXXXXXXXXXXXXXXXXXXXXXXXXXXXXXXXXXXXXXXXXXX",
"XXXXXXXXXXXXXXXXXXXXXXXXXXXXXXXXXXXXXXXXXXXXXXXX",
"XXXXXXXXXXXXXXXXXXXXXXXXXXXXXXXXXXXXXXXXXXXXXXXX",
"XXXXXXXXXXXXXXXXXXXXXXXXXXXXXXXXXXXXXXXXXXXXXXXX",
"XXXXXXXXXXXXXXXXXXXXXXXXXXXXXXXXXXXXXXXXXXXXXXXX",
"XXXXXXXXXXXXXXXXXXXXXXXXXXXXXXXXXXXXXXXXXXXXXXXX",
"XXXXXXXXXXXXXXXXXXXXXXXXXXXXXXXXXXXXXXXXXXXXXXXX",
"XXXXXXXXXXXXXXXXXXXXXXXXXXXXXXXXXXXXXXXXXXXXXXXX",
"XXXXXXXXXXXXXXXXXXXXXXXXXXXXXXXXXXXXXXXXXXXXXXXX",
"XXXXXXXXXXXXXXXXXXXXXXXXXXXXXXXXXXXXXXXXXXXXXXXX",
"XXXXXXXXXXXXXXXXXXXXXXXXXXXXXXXXXXXXXXXXXXXXXXXX",
"XXXXXXXXXXXXXXXXXXXXXXXXXXXXXXXXXXXXXXXXXXXXXXXX",
"XXXXXXXXXXXXXXXXXXXXXXXXXXXXXXXXXXXXXXXXXXXXXXXX",
"XXXXXXXXXXXXXXXXXXXXXXXXXXXXXXXXXXXXXXXXXXXXXXXX",
"XXXXXXXXXXXXXXXXXXXXXXXXXXXXXXXXXXXXXXXXXXXXXXXX",
"XXXXXXXXXXXXXXXXXXXXXXXXXXXXXXXXXXXXXXXXXXXXXXXX",
"XXXXXXXXXXXXXXXXXXXXXXXXXXXXXXXXXXXXXXXXXXXXXXXX",
"XXXXXXXXXXXXXXXXXXXXXXXXXXXXXXXXXXXXXXXXXXXXXXXX",
"XXXXXXXXXXXXXXXXXX==44eeyy44==XXXXXXXXXXXXXXXXXX",
"XXXXXXXXXXXXXXXXXX==44eeyy44==XXXXXXXXXXXXXXXXXX",
"XXXXXXXXXXXXXX++qqggggggggggggrrOOXXXXXXXXXXXXXX",
"XXXXXXXXXXXXXX++qqggggggggggggrrOOXXXXXXXXXXXXXX",
"XXXXXXXXXXXX++ddggggggggggggggggaaOOXXXXXXXXXXXX",
"XXXXXXXXXXXX++ddggggggggggggggggaaOOXXXXXXXXXXXX",
"XXXXXXXXXXXXqqggii88gggggggg88ppggqqXXXXXXXXXXXX",
"XXXXXXXXXXXXqqggii88gggggggg88ppggqqXXXXXXXXXXXX",
"XXXXXXXXXX==gggg88..>>gggg>>..88gggg==XXXXXXXXXX",
"XXXXXXXXXX==gggg88..>>gggg>>..88gggg==XXXXXXXXXX",
"XXXXXXXXXX44gggggg<<..;;,,..;;gggggg44XXXXXXXXXX",
"XXXXXXXXXX44gggggg<<..;;,,..;;gggggg44XXXXXXXXXX",
"XXXXXXXXXXuugggggggg>>....>>ggggggggqqXXXXXXXXXX",
"XXXXXXXXXXuugggggggg>>....>>ggggggggqqXXXXXXXXXX",
"XXXXXXXXXXqqgggggggg>>    >>ggggggggrrXXXXXXXXXX",
"XXXXXXXXXXqqgggggggg>>    >>ggggggggrrXXXXXXXXXX",
"XXXXXXXXXX44gggggg,,..;;,,..;;gggggg44XXXXXXXXXX",
"XXXXXXXXXX44gggggg,,..;;,,..;;gggggg44XXXXXXXXXX",
"XXXXXXXXXX==gggg88  >>gggg>>..88gggg@@XXXXXXXXXX",
"XXXXXXXXXX==gggg88  >>gggg>>..88gggg@@XXXXXXXXXX",
"XXXXXXXXXXXXrrggpp88gggggggg88ppggqqXXXXXXXXXXXX",
"XXXXXXXXXXXXrrggpp88gggggggg88ppggqqXXXXXXXXXXXX",
"XXXXXXXXXXXXOOaaggggggggggggggggaaOOXXXXXXXXXXXX",
"XXXXXXXXXXXXOOaaggggggggggggggggaaOOXXXXXXXXXXXX",
"XXXXXXXXXXXXXXOOrrggggggggggggqqOOXXXXXXXXXXXXXX",
"XXXXXXXXXXXXXXOOrrggggggggggggqqOOXXXXXXXXXXXXXX",
"XXXXXXXXXXXXXXXXXX==11rrrr11@@XXXXXXXXXXXXXXXXXX",
"XXXXXXXXXXXXXXXXXX==11rrrr11@@XXXXXXXXXXXXXXXXXX",
"XXXXXXXXXXXXXXXXXXXXXXXXXXXXXXXXXXXXXXXXXXXXXXXX",
"XXXXXXXXXXXXXXXXXXXXXXXXXXXXXXXXXXXXXXXXXXXXXXXX",
"XXXXXXXXXXXXXXXXXXXXXXXXXXXXXXXXXXXXXXXXXXXXXXXX",
"XXXXXXXXXXXXXXXXXXXXXXXXXXXXXXXXXXXXXXXXXXXXXXXX",
"XXXXXXXXXXXXXXXXXXXXXXXXXXXXXXXXXXXXXXXXXXXXXXXX",
"XXXXXXXXXXXXXXXXXXXXXXXXXXXXXXXXXXXXXXXXXXXXXXXX",
"XXXXXXXXXXXXXXXXXXXXXXXXXXXXXXXXXXXXXXXXXXXXXXXX",
"XXXXXXXXXXXXXXXXXXXXXXXXXXXXXXXXXXXXXXXXXXXXXXXX",
"XXXXXXXXXXXXXXXXXXXXXXXXXXXXXXXXXXXXXXXXXXXXXXXX",
"XXXXXXXXXXXXXXXXXXXXXXXXXXXXXXXXXXXXXXXXXXXXXXXX",
"XXXXXXXXXXXXXXXXXXXXXXXXXXXXXXXXXXXXXXXXXXXXXXXX",
"XXXXXXXXXXXXXXXXXXXXXXXXXXXXXXXXXXXXXXXXXXXXXXXX",
"XXXXXXXXXXXXXXXXXXXXXXXXXXXXXXXXXXXXXXXXXXXXXXXX",
"XXXXXXXXXXXXXXXXXXXXXXXXXXXXXXXXXXXXXXXXXXXXXXXX"
};
