/* XPM */
static char *closeI_big[] = {
/* columns rows colors chars-per-pixel */
"48 108 23 1 ",
"  c #14171B",
". c #16171A",
"X c #14161D",
"o c #14171D",
"O c #16161C",
"+ c #17191B",
"@ c #16181C",
"# c #161A1E",
"$ c #191C1F",
"% c #161820",
"& c #191B22",
"* c #191F22",
"= c #191C25",
"- c #1E232B",
"; c #20222A",
": c #20242A",
"> c #2B2E38",
", c #2B2E39",
"< c #2B3039",
"1 c #2C3038",
"2 c #2A303C",
"3 c #2B313C",
"4 c #6E8FB6",
/* pixels */
"333333333333333333333333333333333333333333333333",
"333333333333333333333333333333333333333333333333",
"333333333333333333333333333333333333333333333333",
"333333333333333333333333333333333333333333333333",
"3333333333333333333333333333333333333333333,3333",
"333333333333333333333333333333333333333333333333",
"333333333333333333333333333333333333333333333,33",
"333333333333333333333333333333333333333333333,33",
"33333333333333333333--##**##--33333,3333333333,3",
"33333333333333,,3333--##**##--333333333333333333",
"3333333333333333++114444444444>>  33333333,33333",
"333,,333,3333333++114444444444>>  33333333333333",
"33333333333333--444444444444444444::333333333333",
",333333,333333;-444444444444444444::333333333333",
"333333333333;;4444444444444444444444::333333333,",
"333333333333;;4444444444444444444444::3333,,3333",
"33333,,333++44444444444444444444444444OO33333333",
"3,33333333++44444444444444444444444444OO33333333",
"33333333331144444444444444444444444444>>3,33,333",
"33333333331144444444444444444444444444>>33333333",
"33,3333,--44444444444444444444444444444433333,33",
"33333333--4444444444444444444444444444443333,333",
"33333333%%444444444444444444444444444444O#333333",
"33333333%%444444444444444444444444444444O#333333",
"33333,,3==444444444444444444444444444444&&333333",
"33,33333==444444444444444444444444444444&&333333",
"33,33333%%444444444444444444444444444444OO333333",
"33333333%%444444444444444444444444444444OO333333",
"33333333--44444444444444444444444444444433333333",
"33333333--44444444444444444444444444444433333333",
"3333333333>>44444444444444444444444444<<33333333",
"33,3333,33>>44444444444444444444444444<<33333333",
"3333,,3333..44444444444444444444444444OO,3333333",
",333333333..44444444444444444444444444OO33333333",
"333333333333::4444444444444444444444;;333333333,",
"333333333333::4444444444444444444444;;3333333333",
"33333333333333-:444444444444444444;;333333333333",
"33333,33333333--444444444444444444;;3333,,3333,3",
"3333333333333333OO>>4444444444<<OO33333333333333",
"3,33333333333333OO>>4444444444<<OO33333333333333",
"33,33333,,333333333333..$$..33333333333333333333",
"33,333333333333,333333..$$..3333333333333,333333",
"333333333333333333333333333333333333333,3333,333",
"3333,3333333333333333333333,33333333333,33333333",
"3333333333333333333,333333333333333,333333333333",
"33333333,3333,3333,333333333333333333333,3333333",
"33333333333333333333333333333333333333333333,333",
"333,333333333333333333333333,,33333333333333,333",
"3333333333,,3333333333,3333333333333333333333333",
",,3333333333333333333333333333333333333333333333",
"333333333333333333333333333333333333333333333333",
"333333333333333333333333,33333333,3333333,333333",
"333333333333333333333333333333333333333333333333",
"333333333333333333333333333333333333333333333333",
"333333333333333333333333333333333333333333333333",
"333333333333333333333333333333333333333333333333",
"333333333333333333333333333333333333333333333333",
"333333333333333333333333333333333333333333333333",
"333333333333333333333333333333333333333333333333",
"333333333333333333333333333333333333333333333333",
"3333,3333333333333333333333333333333333333333333",
"3333,3333,33333333333333333333333,333333333,3333",
"33333333333333333333--##**##--33333333333333,,33",
"33333333333333333333--##**##--333333333333333333",
"3333333333333333++114444444444>>..33333333333333",
"3333333333333333++114444444444>>..33333333333333",
"33333333333333;;444444444444444444::333333333333",
"333,3,,3333333;;444444444444444444::333333333,33",
"333333333333;;4444444444444444444444::333,333333",
"333333333333;;4444444444444444444444::333333,,33",
"33333,3333++44444444444444444444444444OO33333333",
"3,33333333++44444444444444444444444444OO33333333",
"333333333,><44444444444444444444444444>>33333333",
"3333333333<<44444444444444444444444444>>33333333",
"333333,3--44444444444444444444444444444433333,33",
",3333333--444444444444444444444444444444,,333333",
",3333,33%%444444444444444444444444444444##3333,3",
"33333333%%444444444444444444444444444444##333333",
"33333333==444444444444444444444444444444&&333333",
"33333333==444444444444444444444444444444&&333333",
"33333333%%444444444444444444444444444444OO33,,33",
"33333333%%444444444444444444444444444444OO333333",
"33333333--44444444444444444444444444444433333333",
",3333,33--44444444444444444444444444444433333333",
",333333333>>44444444444444444444444444<<33333333",
"3333333333>>44444444444444444444444444<<33333333",
"3333333333..44444444444444444444444444OO33333333",
"3333333333..44444444444444444444444444OO333333,3",
"3,3333333333--4444444444444444444444;;33333,3333",
"33333,333333:-4444444444444444444444;;333333333,",
"33333333333333::444444444444444444;;33333333333,",
"33333333333,33::444444444444444444;;333333333333",
"333,3,,333333333OO>>4444444444<<XX33333333333333",
"3333333333333333OO>>4444444444<<XX333,,3333,3333",
"3333333333333333333333..$$..333333333333333333,3",
"3333333333333333333333..$$..33333333333333333333",
"3333,33333333333333333,3333333333,,3333333333333",
"333,3333333,333333,333333333333333333,3333333333",
"33333333333,3,3333333333333333,333333,3333333333",
"333333333333333333333333,33333333333333333,3333,",
"33333333333333333,,3,333,3333,333333333333333333",
"333333333333333333333333333333333333333333333333",
"3,,333333333,3333333333333333333333333333,333333",
"333333,3,33333333333333333333333,3333,3333333,,3",
"33333333,33333333333333333,3333,3333333333,33333",
"333,33333333,3333,333333333333333333333333333333",
"333,33,3333333333,333333333333333333333333333333",
"3333333333333333333333,33333333333,3333,3333,333"
};
