/* XPM */
static char *closeO_big[] = {
/* columns rows colors chars-per-pixel */
"48 108 37 1 ",
"  c #27080B",
". c #28080B",
"X c #2B2F3A",
"o c #2A303C",
"O c #2A313C",
"+ c #59222D",
"@ c #5B222C",
"# c #5C222D",
"$ c #7F2531",
"% c #812430",
"& c #802530",
"* c #822430",
"= c #AF3839",
"- c #B1393A",
"; c #B2393A",
": c #B43A3B",
"> c #B53B3C",
", c #C8333D",
"< c #C8343D",
"1 c #C9343D",
"2 c #CA343D",
"3 c #C13F40",
"4 c #E13B42",
"5 c #E23B42",
"6 c #E33B42",
"7 c #E33B43",
"8 c #E43B43",
"9 c #E23C43",
"0 c #E33C43",
"q c #E43C43",
"w c #E43C44",
"e c #D94748",
"r c #DA4849",
"t c #EE4C4E",
"y c #EE4C4F",
"u c #EE4F51",
"i c #EE5353",
/* pixels */
"OOOOOOOOOOOOOOOOOOOOOOOOOOOOOOOOOOOOOOOOOOOOOOOO",
"OOOOOOOOOOOOOOOOOOOOOOOOOOOOOOOOOOOOOOOOOOOOOOOO",
"OOOOOOOXOOOOOOOOOOOOOOOOOOOOOOOOOOOOOOOOOOXXOOOO",
"OOOOOOOOOOOOOOOOXOOOOOOOOOOOOOOOOOOOOOOOOOOOOOOO",
"OOOOOOXOOOOOOOOOOOOOOOOOOOOOOOOOOOOOOOOOOOOOOOOO",
"OOOOOOOOOXOOOOOOOOOOOOOOOOOOOOOOOXOOOOOOOOOOOOOO",
"OOOOOOOOOOOOOOOOOOXOOOOOOOOOOOXOOOOOOOOOOOOOOOOO",
"OOOOOOOOOOOOOOOOOXXOOOXOOOOOOOOOOOOOOOOOOOOXOOOO",
"OOOOOOOOOOOOOOOOOOOOOOOOOOOOOOOOOOOOOOOOOOOOOOOX",
"OOOOOOOOOOOOOOOOOOOOOOOOOOOOOOOOOOOOOXOOOOOOOOOX",
"OOOOOOOOOOOXOOOOOOOOOOOOOOOOOOOOOOOXXXOOOOOXOOOO",
"OOOXXOOOOOXXOXOOOOOOOOOOOOOOOOOOOOXXOOOOOOOOOOOO",
"OOOOOOOOOOOOOOOOOO%%2288qq22%%OOOOOOOOOOOOOOOOOO",
"XXOOOOOXOOOOOOOOOO%%2288qq22%%OOOOOOOOOOOOOOOOXX",
"OOOOOOOOXXOOOO##66iiiiiiiiiiii99@@OOOOOOOOOXOOOO",
"OOOOOOOOOOOOOO##66iiiiiiiiiiii99@@OOOOOOOOOXOOOO",
"OOOOOOOXOOOO##uuiiiiiiiiiiiiiiiitt@@OOOOOOXXOOOO",
"XOOOOOOOOOOO##uuiiiiiiiiiiiiiiiitt@@OOOOOOOOOOOX",
"XOOOOOOOOOOO66iiee33iiiiiiii33rrii66XXOOOOOOOOOO",
"OOOOOOOOOOOO66iiee33iiiiiiii33rrii66XXOOOOOOOOOO",
"OXOOOOOOOO%%iiii33..--iiii--..33iiii%%OOOOOOOOOO",
"OXOOOOXXOO%%iiii33..--iiii--..33iiii%%OOOOXOOOOO",
"OOOOOOOOOO22iiiiii>>..==::..==iiiiii22OOOOXOOOXO",
"OOOOOOOOOO22iiiiii>>..==::..==iiiiii22OOOOOOOOXO",
"OOOOOOOXXOwwiiiiiiii--....--iiiiiiii66OOOOOOXXOO",
"OOOOOOOOOOwwiiiiiiii--....--iiiiiiii66OOOOOOOOOO",
"OOOOOOOOOO66iiiiiiii--    --iiiiiiii99OOOOOOOOOO",
"OOXXOOOOOO66iiiiiiii--    --iiiiiiii99OOOOOOOOOO",
"OOOOOOXOOO22iiiiii::..==::..==iiiiii22OOOOOXOOOO",
"OOOXOOXOOO22iiiiii::..==::..==iiiiii22OOOOOXOOOO",
"OOOOOOOOOO%%iiii33  --iiii--..33iiii$$OOOOOOOOOO",
"OOOOOOOOOO%%iiii33  --iiii--..33iiii$$OOOOOOOOOO",
"OOXOOOOXOOOO99iirr33iiiiiiii33rrii66OOOOOXXOOOXO",
"OOOOOOOXOOOO99iirr33iiiiiiii33rrii66OOOOOOOOOOXO",
"OOOOOOOXOOOO@@ttiiiiiiiiiiiiiiiitt@@OOOOOOOOOOOO",
"OOOOOOOOOOOO@@ttiiiiiiiiiiiiiiiitt@@OOOOOOOOOOOO",
"OOOOOOOOOOOOOO@@99iiiiiiiiiiii66@@OXOOOOXOOOOXOO",
"OOXOOOOOOOOOOO@@99iiiiiiiiiiii66@@OOOOOOOOOOOXOO",
"OOXOOOXOOOOOOOXOXX%%,,9999,,$$OXOOOOOOOOOOOOOOOO",
"OOOOOOOOOOOOOOXOXX%%,,9999,,$$OOOOOOOOOOOOOOOOOO",
"OOOOOOOOOOOOXXOOOOOOOOOOOOOXXOOOOOOOOOOOOOOOOOOO",
"OOOOOOOOOOOOOOOOOOOOOOOOOOOOOOOOOOOOOOOOXXOOOOOO",
"OOOOOOOOOOOOOOOOOOOOOOOOOOOOOOOOOOOOOOOOOOOOXXOO",
"OOXXOXXOOOOOOOOOOOOOOOOOOOOOOOOOOXOOOOOXOOOOOOOO",
"OOOOOOOOOOOXOOOOOOOOOOOOOOOOXOOOOOXOOOOXOOOOOOOO",
"OOOOOOOOOOOOOOOOXOOOOOOOOOXXOOOOOOXOOOOOXOOOOOOO",
"OOOOOXOOOOOOOXOOXOOOOOXOOOOOXOOOOOOOOOOOOOOOXOOO",
"XXOOOOOOOOOOOXOOOOOOOOOXOOOOOOOOOOOOOOOOOOOOXOOO",
"OOOOOOOOOOOOOOOOOOOOOOOOOOOOOOOOOOOOOOOOOOOXOOOO",
"OOOOOOOOOOOXOOOOOOOOOOOOOOOOOOOOOXOOOOOOOOXOOOOO",
"OOOOOOOOOOOOXXOOOOOOOOXOOOOXOOOOOOOOOOOOOOOOOOOO",
"OOOOOOOOOOOXOOOOOOOOOOOOOOXXOOOOOOOOOOOOOOOOOOOO",
"XXOOOOOOOOOOOOOOOOOOOOOOOOOOOOOOOOOOOOOOOOOOOOOO",
"OOOOOOOOOOOOOOOOOOOOOOOOOOOOOOOOOOOOOOOOOOOOOOOO",
"OOOOOOOOOOOOOOOOOOOOOOOOOOOOOOOOOOOOOOOOOOOOOOOO",
"OOOOOOOOOOOOOOOOOOOOOOOOOOOOOOOOOOOOOOOOOOOOOOOO",
"OOXXOOOOOOOOOOOOOXXOOOXOOOOXOOOOOOOOOOOOOOOOOOOO",
"OOOOOOOXOOOOOOOOOOOOOOXOOOOXOOOOOOOOOOOOOOOOXXOO",
"OOOOOOOOOOOOXOOOOOOOOOOOOOOOOOOXOOOOXXOOOOOXOOOO",
"OOOOOOOOOOOOXOOOOOOOOOOOOOOOOOOOOOOOOOOOOOOOOOOO",
"OOOOOOOOOOOOOOOOXOOOOXOOOOOOOOOOOOOOOOOOOOOOOOOO",
"OOXOOOOOOOOOOOOOOOOOOXOOOOXXOOOOOOOOOOOOOOOOOOOO",
"OOXOOOXOOOOOOOOOOOOOOOOOOOOOOOXXOOOOOOOOOOOOOOOO",
"OOOOOOXOOOXXOOOOOOOOOOOOOOOOOOOOOOOXXOOOOOOXXOOO",
"OOOOOOOOOOOOOXOOOXXOOOOOOOOOOOOOOOOOOOOOOOOOOOOO",
"OOOOOOOOOOOOOOOOOXOOOOOOOOOOOOOOOOOOOOOOOOOOOOOO",
"OOOOOOOOOOOOOOOOOO%%2288qq22%%OOOOOOOOOXXXOOOOOX",
"OOXXOOXOOOOOOOOOOO%%2288qq22%%OOOOOOOOOOOXOOOOOX",
"OOOOOOOOOOOOOO##66iiiiiiiiiiii99@@OOOOOOOOOXOOOO",
"OOOOOOOOOOOOOO##66iiiiiiiiiiii99@@OOOOOOOOOOOOOO",
"OOOOOXOOOOOO##uuiiiiiiiiiiiiiiiitt@@OOOOOOOOOOOO",
"XXOOOXOOOOOO##uuiiiiiiiiiiiiiiiitt@@OOOOOOOOOOOO",
"OOOOOOOOOOOX66iiee33iiiiiiii33rrii66XXOOOOOXOOOO",
"OOOOOOOOOOOX66iiee33iiiiiiii33rrii66XXOOOOOXOOOO",
"OOOOOOOOOO%%iiii33..--iiii--..33iiii%%OOOOOOOOXX",
"OOOOOXXOOO%%iiii33..--iiii--..33iiii%%OOOOOOOOOO",
"XXOOOOOOOO22iiiiii>>..==::..==iiiiii22OOOOOOOOOO",
"OOOOOXOOOO22iiiiii>>..==::..==iiiiii2,OOOOXXOOOO",
"OOOOOOOOOOwwiiiiiiii--....--iiiiiiii66OOOOOOOOOX",
"OOOOOOOOOOwwiiiiiiii--....--iiiiiiii66OOOOOOOOOO",
"OXOOOOXOOO66iiiiiiii--    --iiiiiiii99OOOOOOOOOO",
"OXOOOOXOOO66iiiiiiii--    --iiiiiiii99OOOOOOOOOO",
"OOOOOOOOOO22iiiiii::..==::..==iiiiii22OOOOOOOOOO",
"OOOOOOOOOO22iiiiii::..==::..==iiiiii22OOOOOOOOOX",
"OOOOOOOOOO%%iiii33  --iiii--..33iiii$$OOOOOOOOXX",
"OOOOOOOOOO%%iiii33  --iiii--..33iiii$$OOOOXOOOOO",
"OOOOOOOOOOOO99iirr33iiiiiiii33rrii66OOOOOOOOOOOO",
"OOXXOOOOOOOO99iirr33iiiiiiii33rrii66OOOOOOOOOOOO",
"OOOOOOOOOOOO@@ttiiiiiiiiiiiiiiiitt@@OOOOOOOOOOOO",
"OOOXOOOOOOOO@@ttiiiiiiiiiiiiiiiitt@@OOOOOOOOOOOO",
"OOOOXXOOOOOXOO@@99iiiiiiiiiiii66@@OOOOOOOOOOXXOO",
"OOOOOOOOOOXOOO@@99iiiiiiiiiiii66@@XOOOOOXXOOOOOO",
"OOOOOOOOOOOOOOOOXX%%,,9999,,$$OOOOOOOOOOOOOOOXOO",
"OOOOOOOOOOOOOOOOXX%%,,9999,,$$OOOOOOOOOOOOOOOOOO",
"OOOOOOOOOOOOOOOOOOOOOOOOOOOOOOOOOOXOOOOOOOOOOOOO",
"OOOXXOOOOOOOOOOOOOOOOOOOOOOOOOOOOOOOOOXXOOOOOOOO",
"OOOOOOOOOOOOOOOOOOOXOOOOXOOOOOOOOOOOOOOOOOXXOOOO",
"XXOOOOOOOOOOOOOOOOOOOOOOXOOOOOOOOOXOOOXOOOOOOOOO",
"OOOOXXOOOOXOOOOOOOOOOOOOOOOOXOOOOOXOOOOOOOOOOOOO",
"OOOOOOOOOOXOOOOXOOOOOOOOOOOOOOOOOOOOOOOOOOOOOOOO",
"OOOOOOOOOOOOOOOOOOOOOOOOOOOOOOOOOOOOOOOOOOOOXOOO",
"XOOOOOOOOOOOOOOOOOXXXOOOXXOOOOOOOOOOOOOXOOOOXOOO",
"OOOOXOOOOXOOOOOOOOOOXOOOOOOOXOOOOOOOOOOXOOXXOOOO",
"OOOOXOOOOXOOOXXOOOOOOOOOOOOOXOOOOOXXOOOOOOOOOOOO",
"OOOOOOOOOOOXXOOOOOOOOOOOOOXOOOOXXXOOOOOOOOOOOOOX",
"OOOOOOOOOOOOOOOOOXOOOOOOOOXOOOOXOOOOOXXOOOOOOOOX",
"OOXXOOOOOOOOOOOOOOOOOOOOOOOOOOOOOOOOOOOOXOOOOOOO",
"OOOOOOXOOOOOOOOOOOOOOOXXOOOOOOOOOOOOOOOOOOOOOOOO"
};
