/* XPM */
static char *maximizeA_big[] = {
/* columns rows colors chars-per-pixel */
"48 108 45 1 ",
"  c #032702",
". c #2A303C",
"X c #2A313C",
"o c #14571E",
"O c #15581E",
"+ c #1A5625",
"@ c #1A5426",
"# c #165B20",
"$ c #175E21",
"% c #1B7725",
"& c #1B7726",
"* c #1B7827",
"= c #227B32",
"- c #237D33",
"; c #237E34",
": c #2E6644",
"> c #2E6844",
", c #2F6944",
"< c #248136",
"1 c #27BC3B",
"2 c #26BD3B",
"3 c #26BC3C",
"4 c #27BC3C",
"5 c #26BD3C",
"6 c #389254",
"7 c #399354",
"8 c #389355",
"9 c #389455",
"0 c #34AC4F",
"q c #34AD4F",
"w c #34AF50",
"e c #35B051",
"r c #2ED446",
"t c #2ED547",
"y c #2FD647",
"u c #2ED648",
"i c #3AE559",
"p c #3AE55A",
"a c #3AE65A",
"s c #44DC69",
"d c #49DC70",
"f c #49DD70",
"g c #4ADD70",
"h c #7AD082",
"j c #7AD083",
/* pixels */
"XXXXXXXXXXXXXXXXXXXXXXXXXXXXXXXXXXXXXXXXXXXXXXXX",
"XXXXXXXXXXXXXXXXXXXXXXXXXXXXXXXXXXXXXXXXXXXXXXXX",
"XXXXXXXXXXXXXXXXXXXXXXXXXXXXXXXXXXXXXXXX..XXXXXX",
"XXXXXXX.XXXXXXXXXXXXXXXXXXXXXXXXXXXXXXXXXXXXXXXX",
"XXXXXX..XXXXXXXX...XX.X.XXXXXXXXXXXXXXXXXXXXXXXX",
"XXXXXXXXX.XXXXXXXX.XXX.XXXXXXX.XX.XXXXXXXXXXXXXX",
"XXXXXXXXX.XXXXXXXXXXXXXXXXXXXX.X.XXXXXXXXXXXXX.X",
"XXXXXXXXXXXXXXXXXXXXXXXXXXXXXXXXXXXXXXXX...XXX..",
"XXXXXXXXXX...XXXXXXXXXXXXXXXXXXXXXXXXXXXXXXXXXXX",
"XXXXXXXXXXXX.XXXXXXXXXXXXXXXXXXXXXXXXXXXXX.XXXXX",
"XXXXX.XXXXXXXXXXXXXXXXXXXXXXXXXX..XX.XXXXX..XXXX",
"XXXX..XXXXXXXXXXXXXXXXXXXXXXXXXX.XXX..XXXXXXXXXX",
".XXX...XXXXXX..XXX99ffjjjjff88XX.XXXX.XXXXXXXX..",
"..XX.XXXXXXXX.XXXX99ffjjjjff88XXXXXX..XXXXX.XX.X",
"XXXXXXXXXXXXXX,,jjjjjjjjjjjjjjjj,,XXXXXXXXX.XXXX",
"XXXXXXXXXXXXXX,,jjjjjjjjjjjjjjjj,,XXXXXXXXX.XXXX",
"XXXXXXXXXXXX,,jjjjjjjjjjjjjjjjjjjj,,XXXXXXXX..XX",
".XXXXX..XXXX,,jjjjjjjjjjjjjjjjjjjj,,XXXX.XXXX.XX",
".XXXXX.XXXXXjjjjjjjjjjjjjjjjjjjjjjjjXXXX..XXXXXX",
".XXXXXXXXXXXjjjjjjjjjjjjjjjjjjjjjjjjXXXXXXXXXXXX",
"XXXXXXXXXX99jjjjjjjjjjjjjjjjjjjjjjjj88XXXXXXXXXX",
"XXXXXXXXXX99jjjjjjjjjjjjjjjjjjjjjjjj88XXXXXXXXXX",
"..XXXXX.XXffjjjjjjjjjjjjjjjjjjjjjjjjffXX.XXX..XX",
"X.XXXX..XXffjjjjjjjjjjjjjjjjjjjjjjjjffX..XXX.XXX",
"XXXXXXXXXXjjjjjjjjjjjjjjjjjjjjjjjjjjjjXXXXXXXXXX",
"XXXXXXXXXXjjjjjjjjjjjjjjjjjjjjjjjjjjjjXXXXXX..XX",
"XXXX..XXXXjjjjjjjjjjjjjjjjjjjjjjjjjjjjXXXXX..XXX",
".XXX.XXXXXjjjjjjjjjjjjjjjjjjjjjjjjjjjjXXXXX.XXXX",
"..XXXXXXXXffjjjjjjjjjjjjjjjjjjjjjjjjffXXXXX.XXXX",
"XXXX..XXXXffjjjjjjjjjjjjjjjjjjjjjjjjffXXXXX.XXXX",
"XXXX.XXXXX88jjjjjjjjjjjjjjjjjjjjjjjj88XXXXXXXXXX",
"XXXXXXXXXX88jjjjjjjjjjjjjjjjjjjjjjjj88XXXXXXXXXX",
"XXXX.XXXXXXXjjjjjjjjjjjjjjjjjjjjjjjjXXXXXXXXXXXX",
"XXXX.XXXXXXXjjjjjjjjjjjjjjjjjjjjjjjjXXXXXXXXXXXX",
"X.XX.XXXXXXX,,jjjjjjjjjjjjjjjjjjjj::XXXX.XXXX..X",
"..XXXXXXXXXX,,jjjjjjjjjjjjjjjjjjjj::XXXX..XXXX.X",
"XXXXXXXXXXXXXX,,jjjjjjjjjjjjjjjj::XXXXXXXXXXXXXX",
"XXXX..XXXXXX..,,jjjjjjjjjjjjjjjj::XXXXXXXXXXXXXX",
"XXXX..XXXXXX..XXXX88ffjjjjff88XXXXXXXXXXXX..XXXX",
"XXXXXXXXXXXXXXXXXX88ffjjjjff88XXXXXXXXXXXX.XXXX.",
"..XXX...XXXXXXXXXXXXXXXXXXXX..XXXXXXXXXXXXX.XXX.",
"X.XXXXXXXXXXXXXXXXXXXXXXXXXXX.XXXXXXXXXXXX..XXX.",
"XXXXXXXXXX...XXXXXXXXXXXXXXXXXXX..XXXX.XXXXXXXXX",
"XXXXXXXXXX...XXXXXXXXXXXXXXXXXXXX.XXX..XXXXXXXXX",
"..XXXXXXXXXXXXXX.XXXXXX.XXX..XXXXXX...XXXXXXXXXX",
".XXXXX..XXXXXXXX.XXXXX.XXX...XXXXXXXXXXXXXXXXX..",
"XXXXXX.XXXXXXXXX..XXXXX.XXXX.XXXXXXXXXXXXX.XXXX.",
"XXXXXXXXXXXX..XXXXXXXXXXXXXXXXXXXXXXXXXXXX..XXXX",
"XXXXXXXXXXXXXXXXXXXXXXXXXXXXXXXXXXXXXXXXXX..XXXX",
"XXXXXXXXXXX.XXXXXXXXXXXXXXXXXXXX..XXXXXXX..XXXXX",
"..XXXXXXXXX...XXXXXXX..XXXX.XXXXXXXXXXXXXXXXXXXX",
"X.XXXXXXXXX..XXXXXXXXXXXX...XXXXXXXXXXXXXXXXXXXX",
"XXXXXXXXXXXXXXXXXXXXXXXXXXXXXXXXXXXXXXXXXXXXXXXX",
"XXXXXXXXXXXXXXXXXXXXXXXXXXXXXXXXXXXXXXXXXXXXXXXX",
"XXXXXXXXXXXXXXXXXXXXXXXXXXXXXXXXXXXXXXXXXXXXXXXX",
"XXXXXXXXXXXXXXXXXXXXXXXXXXXXXXXXXXXXXXXXXXXXXXXX",
"XXXX..XXXXXXXXXXXXXXXXXX.XXXX.XXXXXXXXXXXXXX..XX",
".XXXX.XXXXXXXXXXXXXXXXXX.XXXX..XXXXXXXXXXXXXX.XX",
"..XXXXXXXXXX.XXXXXXXX..X.XXXXXXXXXXX..XXXXXXXXXX",
"XXXXXXXXXXXX.XXX...XX.XXXXXXXXXXXXXX.XXXXXXXXXXX",
"XXXXXXXXXXXX.XXXXXXXXXXXXXXXXXXXXXXX.XXXXXX..XXX",
"XXXXXXXXXXX..XXXXXXXXXXXXXXXXXXXXXXXXXXXXX...XXX",
".XXX..XXXX..XXXXXX..XXXX..XX.XXXXX..XXXXXXXX.XXX",
".XXX.XXXXXXXXXXXXXX.XXXX.XXX..XXXX.XXXXXXXXXXXXX",
".XXXX.XXXXXXX.XXXX..XXXXXXXXXXXXXXXXXXXXXXXXXXXX",
"XXXX..XXXXXX.XXXXX..XXXXXXXXXXXXXXXXXXX.XXXXXXXX",
"XXXXXXXXXXXXXXXXXX**55jjjj55&&XXXXXXXXX...XXXXXX",
"XXXXXXXXXXXXXXXXXX**55jjjj55&&XXXXXXXX...XXX...X",
"X.XXXX..XXXXXX++yyjjjjjjjjjjjjuu++XXXXXXXXXX..XX",
"X..XXXX.XXXXXX++yyjjjjjjjjjjjjuu++XXXXXXXXXXX.XX",
"XXXXXXXXXXXX++aajjjjjjjjjjjjjjjjaa++XXXXXXXXXXXX",
"XXXXXXXXXXXX++aajjjjjjjjjjjjjjjjaa++XXXXXXXXXXXX",
"XXXXXXXXX.XXyyjjjjjjww======;;ssjjyyXXXXXXXXXX..",
"XXXXXXXXXXXXyyjjjjjjww======;;ssjjyyXXXXX..XXXX.",
"XXXXXX..XX**jjjjjjjjjj##      <<jjjj&&XXXXXXXXX.",
"X...XXX.XX**jjjjjjjjjj##      <<jjjj&&XXXXXXXXXX",
"XX..XXXXXX22jjjjqqjjjjjj##    --jjjjjjXXXXXXXXXX",
"XX.XXXXXXX22jjjjqqjjjjjj##    --jjjjjjXXXXXXXXXX",
"XXXXXXXXXXjjjjjj--oojjjjjj$$  --jjjjjjXXXXX.XX..",
"XXXXXXXXXXjjjjjj--oojjjjjj$$  --jjjjjjXXX...XXXX",
"XXXXXXXXXXjjjjjj--  oojjjjjj$$--jjjjjjXXXXXXXXXX",
"XXXX.XXXXXjjjjjj--  oojjjjjj$$--jjjjjjXXXXXXXXXX",
"X.XX.XXXXX22jjjj--    OOjjjjjjeejjjj22XXXXXXXXXX",
"..XXXXXXXX22jjjj--    OOjjjjjjeejjjh22XXXXXXXXX.",
".XXXXXXXXX&&jjjj<<      OOjjjjjjjjjj&&XXXXXXXX..",
"XXXXXXXXXX&&jjjj<<      OOjjjjjjjjjj&&XXXXX.XX.X",
"XXXXXXXXXXXXjjjjss;;======qqjjjjjjyyXXXXXXXXXXXX",
"XXXXXXXXXXXXjjjjss;;======qqjjjjjjyyXXXXXX..XXXX",
"X.XXXX..XXXX++jjjjjjjjjjjjjjjjjjaa@@.XXXXXXX.XXX",
"..XXXXX.XXXX++jjjjjjjjjjjjjjjjjjaa@@.XXXXXXX.XXX",
"XXXXXXXXXXX.XX++jjjjjjjjjjjjjjyy@@XX.XXXX.XX.XXX",
"XXXXXXXXXXXXXX++jjjjjjjjjjjjjjyy++XXXXXX..XXXXXX",
".XXXXXXXXXX.XXXXXX&&jjjjjj55&&XXXXXXXXXXXXXXXXXX",
".XXXXX.XXX.XXXXXXX&&jjjjjj55&&XXXXXXXXXXXXXX..XX",
".XXXXX..XXXXXXXXXXXXXXXXXXXXXXXXXXXXXX.XXXXXX.XX",
"XXXXXXXXXXXXXXXXXXXXXXXXXXXXXXXX...XXX..XXXXXXXX",
"XXXXXXXXXXXXXXXX...XXX..XXXXXXXXXXXXXXXXXXXXXXX.",
"XXXXXXXXXXXXXXXXXXXXXX.XXXXXX.XXXXXXXXXX..XXXX..",
"..XXXXXXX..XXXX.XXXXXXXXXXXX..XXXXX.XXX..XXXXXXX",
".XXX...XX.XXXX..XXXXXXXXXXXXXXXXXX..XXX.XXXXXXXX",
"XXXX..XXXXXXXXXXXXXXXX....XXXXXXXX.XXXX.XXXXXXXX",
"XXXXX.XXXXXXXXXX..XXXXX.X.XX.XXXXX..XXXX.XXXXXXX",
"XXXXXXXXXXXX..XXX.XXXXXXXXXX.XXXXXXXXXXX..XXXX..",
"XXXXXXXX.XXXX.XXXXXXXXXXXXXX.XXXXXXXXXXXXXXXXXX.",
"..XXXX....XXX..XXXXXX.XXXXXXXXXXXX..XXXXXX...XXX",
"X.XXXX.XXXXXX.XXXXXX..XXXXXX.XXXXXX.XXXXXXXXXXXX",
"XXXXXXXXXXXXXXXXXXXXXXXXXXXX..XXXXXXXX..XXXXXXXX",
"XXXXXXXXXXXXXXXXXXX.XXXX..XXXXXXXXXXXX.XXXXXXXXX"
};
