/* XPM */
static char *maximizeO_big[] = {
/* columns rows colors chars-per-pixel */
"48 108 35 1 ",
"  c #032702",
". c #2A303C",
"X c #2A313C",
"o c #14571E",
"O c #15581E",
"+ c #1A5625",
"@ c #1A5426",
"# c #165B20",
"$ c #175E21",
"% c #1B7725",
"& c #1B7726",
"* c #1B7827",
"= c #227B32",
"- c #237D33",
"; c #237E34",
": c #248136",
"> c #27BC3B",
", c #26BD3B",
"< c #26BC3C",
"1 c #27BC3C",
"2 c #26BD3C",
"3 c #34AC4F",
"4 c #34AD4F",
"5 c #34AF50",
"6 c #35B051",
"7 c #2ED446",
"8 c #2ED547",
"9 c #2FD647",
"0 c #2ED548",
"q c #2ED648",
"w c #3AE559",
"e c #3AE55A",
"r c #3AE65A",
"t c #75C37D",
"y c #75C47D",
/* pixels */
"XXXXXXXXXXXXXXXXXXXXXXXXXXXXXXXXXXXXXXXXXXXXXXXX",
"XXXXXXXXXXXXXXXXXXXXXXXXXXXXXXXXXXXXXXXXXXXXXXXX",
"XXXXXXXXXXXXXXXXXXXXXXXXXXXXXXXXXXXXXXXXXXXXXXXX",
"XXXXXXX.XXXXXXXXXXXXXXXXXXXXXXXXXXXXXXXXXXXXXXXX",
"XXXXXX..XXXXXXXX...XX..XXXXXXXXXXXXXXXXXXXXXXXXX",
"XXXXXXXXX.XXXXXXXX.XXX.XXXXXXX.XX.XXXXXXXXXXXXX.",
"XXXXXXXXX.XXXXXXXXXXXXXXXXXXXX.X.XXXXXXX..XXXX..",
"XXXXXXXXXXXXXXXXXXXXXXXXXXXXXXXXXXXXXXXX.XXXXXXX",
"XXXXXXXXXX...XXXXXXXXXXXXXXXXXXXXXXXXXXXXXXXXXXX",
"XXXXXXXXXXXX.XXXXXXXXXXXXXXXXXXXXXXXX.XXXXXXXXXX",
"XXXXX.XXXXXXXXXXXXXXXXXXXXXXXXXX..XX..XXXXX.XXX.",
"XXXX..XXXXXXXXXXXXXXXXXXXXXXXXXX.XXX.XXXXX..XXX.",
".XXX...XXXXXX..XXX**<<tttt<<&&XX.XXXXXXXXX.XXXX.",
"..XX.XXXXXXXX.XXXX**<<tttt<<&&XXXXXXXXXXXX..XXXX",
"XXXXXXXXXXXXXX++ttyyyyyyyyyyyyqq++XXXXXXXXXXXXXX",
"XXXXXXXXXXXXXX++ttyyyyyyyyyyyyqq++XXXXXXXXXXXXXX",
"XXXXXXXXXXXX++ttyyyyyyyyyyyyyyyyee++XXXXXXXX..XX",
".XXXXX..XXXX++ttyyyyyyyyyyyyyyyyee++XXXX.XXXX.XX",
".XXXXX.XXXXX99yyyyyy55======;;ttyy99XXXX..XXXXXX",
".XXXXXXXXXXX99yyyyyy55======;;ttyy99XXXXXXXXXXXX",
"XXXXXXXXXX**yyyyyyyyyy##      ::yyyy&&XXXXXXXXXX",
"XXXXXXXXXX**yyyyyyyyyy##      ::yyyy&&XXXXXXXXXX",
"..XXXXX.XX,,yyyy44yyyyyy##    --yyyy,,XX.XXX..XX",
"X.XXXX..XX,,yyyy44yyyyyy##    --yyyy,,X..XXX.XXX",
"XXXXXXXXXXttyyyy--ooyyyyyy$$  --yyyyttXXXXXXXXXX",
"XXXXXXXXXXttyyyy--ooyyyyyy$$  --yyyyttXXXXXX..XX",
"XXXX..XXXXttyyyy--  ooyyyyyy$$--yyyyttXXXXX..XXX",
".XXX.XXXXXttyyyy--  ooyyyyyy$$--yyyyttXXXXX.XXXX",
"..XXXXXXXX,,yyyy--    OOyyyyyy66yyyy,,XXXXX.XXXX",
"XXXX..XXXX,,yyyy--    OOyyyyyy66yyyy,,XXXXX.XXXX",
"XXXX.XXXXX&&yyyy::      OOyyyyyyyyyy&&XXXXXXXXXX",
"XXXXXXXXXX&&yyyy::      OOyyyyyyyyyy&&XXXXXXXXXX",
"XXXX.XXXXXXXqqyytt;;======44yyyyyy99XXXXXXXXXXXX",
"XXXX.XXXXXXXqqyytt;;======44yyyyyy99XX.XX.XXXXXX",
"XXXX..XXXXXX++eeyyyyyyyyyyyyyyyyee++XX....XXXXX.",
"..XXXXXXXXXX++eeyyyyyyyyyyyyyyyyee++XX..XXXXXX..",
".XXXXXXXXXXXXX++qqyyyyyyyyyyyy99@@XXXXXXXXXXXXXX",
"XXXX..XXXXXXX.++qqyyyyyyyyyyyy99@+XXXXXXXXXXXXXX",
"XXXXXXXXXXXX..XXXX&&<<tttt<<&&XX..XXXXXXXXXXXX.X",
"XXXXXXXXXXXX.XXXXX&&<<tttt<<&&XXXXXXXXXX...XXX..",
"X.XXXX..XXXXXXXXXXXXXXXXXXXX..XXXXXXXXXXXXXXXXXX",
"..XXXXX.XXXX.XXXXXXXXXXXXXXXX.XXXXXXXXXXXX.XXXXX",
"XXXXXXXXXX...XXXXXXXXXXXXXXXXXXX.XXX.XXXXX..XXXX",
"XXXXXXXXXXX.XXXXXXXXXXXXXXXXXXXX.XXX..XXXXXXXXXX",
".XXXXXXXXXX.XXXX..XXXX.XXXX..XXX.XXXX.XXXXXXXX..",
".XXXXX.XXXXXXXXX.XXXXXX.XX...XXXXXXX..XXXXX.XX.X",
".XXXXX..XXXXX.XX.XXXXX.XXXXX.XXXXXXXXXXXXXX.XXXX",
"XXXXXXXXXXXXX.XXXXXXXXXXXXXXXXXXXXXXXXXXXXX.XXXX",
"XXXXXXXXXXXXXXXXXXXXXXXXXXXXXXXXXXXXXXXXXX..XXXX",
"XXXXXXXXXXX.XXXXXXXXXXXXXXXXXXXX..XXXXXXX..XXXXX",
"..XXXXXXXXX...XXXXXXX..XXXX.XXXXXXXXXXXXXXXXXXXX",
".XXXXXXXXXX..XXXXXXXXXXXX...XXXXXXXXXXXXXXXXXXXX",
"XXXXXXXXXXXXXXXXXXXXXXXXXXXXXXXXXXXXXXXXXXXXXXXX",
"XXXXXXXXXXXXXXXXXXXXXXXXXXXXXXXXXXXXXXXXXXXXXXXX",
"XXXXXXXXXXXXXXXXXXXXXXXXXXXXXXXXXXXXXXXXXXXXXXXX",
"XXXXXXXXXXXXXXXXXXXXXXXXXXXXXXXXXXXXXXXXXXXXXXXX",
"XXXX..XXXXXXXXXXXXXXXXXX.XXXX.XXXXXXXXXXXXXXXXXX",
".XXXX.XXXXXXXXXXXXXXXXXX.XXXX..XXXXXXXXXXXXX..XX",
"..XXXXXXXXXX.XXXXXXXX..X.XXXXXXXXXXX..XXXXX..XXX",
"XXXXXXXXXXXX.XXX...XX.XXXXXXXXXXXXXX.XXXXXX.XXXX",
"XXXXXXXXXXXX.XXXXXXXXXXXXXXXXXXXXXXX.XXXXXX.XXXX",
"XXXXXXXXXXX..XXXXXXXXXXXXXXXXXXXXXXXXXXXXXXXXXXX",
".XXX..XXXX..XXXXXX..XXXX..XX.XXXXX..XXXXXXXX..XX",
".XXX.XXXXXXXXXXXXXX.XXXX.XXX..XXXX.XXXXXXXXXX.XX",
".XXXX.XXXXXXXXXXXXX.XXXXXXXXXXXXXXXXXXXXXXXXXXXX",
"XXXX..XXXXXX.XXXXX..XXXXXXXXXXXXXXXXXXX.XXXXXXXX",
"XXXXXXXXXXXX.XXXXX&*<<tttt<<&&XXXXXXXXX...XX.XXX",
"XXXXXXXXXXXXXXXXXX**<<tttt<<&&XXXXXXXXXX.XXX..XX",
"X.XXXX..XXXXXX++99ttttttttttttqq++XXXXXX.XXXX.XX",
"X..XXXX.XXXXXX++99ttttttttttttqq++XXXXXXXXXX..XX",
"XXXXXXXXXXXX++eettttttttttttttttee++XXXXXXXXXXXX",
"XXXXXXXXXXXX++eettttttttttttttttee++XXXXXXXXXXXX",
"XXXXXXXXX.XX99tttttt55======;;tttt99XXXXXXXXXX..",
"XXXXXXXXXXXX99tttttt55======;;tttt99XXXXX..XXXX.",
"XXXXXX..XX**tttttttttt##      ::tttt&&XXXXXXXXX.",
"X...XXX.XX**tttttttttt##      ::tttt&&XXXXXXXXXX",
"XX..XXXXXX,,tttt44tttttt##    --tttt,,XXXXXXXXXX",
"XX.XXXXXXX,,tttt44tttttt##    --tttt,,XXXXXXXXXX",
"XXXXXXXXXXtttttt--ootttttt$$  --ttttttXXXXX.XX..",
"XXXXXXXXXXtttttt--ootttttt$$  --ttttttXXX...XXXX",
"XXXXXXXXXXtttttt--  ootttttt$$--ttttttXXXXXXXXXX",
"XXXX.XXXXXtttttt--  ootttttt$$--ttttttXXXXXXXXXX",
"X.XX.XXXXX,,tttt--    OOtttttt66tttt,,XXXXXXXXXX",
"..XXXXXXXX,,tttt--    OOtttttt66tttt,,XXXXXXXXX.",
".XXXXXXXXX&&tttt::      OOtttttttttt&&XXXXXXXX..",
"XXXXXXXXXX&&tttt::      OOtttttttttt&&XXXXX.XX.X",
"XXXXXXXXXXXXqqtttt;;======44tttttt99XXXXXXXXXXXX",
"XXXXXXXXXXXXqqtttt;;======44tttttt99XXXXXX..XXXX",
"X.XXXX...XXX++eettttttttttttttttee++XX.XXXXX.XXX",
"..XXXXX.XXXX++eettttttttttttttttee++X...XXXX.XXX",
"XXXXXXXXXXXXXX++qqtttttttttttt99@@XX.XX.X.XX.XXX",
"XXXXXXXXXXX.XX++qqtttttttttttt99++XXXXX...XXXXXX",
".XXXXXXXXXXXXXXXXX&&<<tttt<<&&XXXXXXXXXXXXXXXXXX",
".XXXXX.X.XXXXXXXXX&&<<tttt<<&&XXXXXXXXXXXXXX..XX",
".XXXXX..XXXXXXXXXXXXXXXXXXXXXXXXXXXXXX.XXXXXX.XX",
"XXXXXXXXXXXXXXXXXXXXXXXXXXXXXXXX...XXX..XXXXXXXX",
"XXXXXXXXXXXXXXXX...XXX..XXXXXXXXXXXXXXXXXXXXXXX.",
"XXXXXXXXXXXXXXXXXXXXXX.XXXXXX.XXXXXXXXXX..XXXX..",
"..XXXXXXX..XXXX.XXXXXXXXXXXX..XXXXX.XXX..XXXXXXX",
".XXX...XX.XXXX..XXXXXXXXXXXXXXXXXX..XXX.XXXXXXXX",
"XXXX..XXXXXXXXXXXXXXXX....XXXXXXXX.XXXX.XXXXXXXX",
"XXXXX.XXXXXXXXXX..XXXXX.X.XX.XXXXX..XXXX.XXXXXXX",
"XXXXXXXXXXXX..XXX.XXXXXXXXXX.XXXXXXXXXXX..XXXX..",
"XXXXXXXX.XXXX.XXXXXXXXXXXXXX.XXXXXXXXXXXXXXXXXX.",
"..XXXX....XXX..XXXXXX.XXXXXXXXXXXX..XXXXXX...XXX",
"X.XXXX.XXXXXX.XXXXXX..XXXXXX.XXXXXX.XXXXXXXXXXXX",
"XXXXXXXXXXXXXXXXXXXXXXXXXXXX..XXXXXXXX..XXXXXXXX",
"XXXXXXXXXXXXXXXXXXX.XXXX..XXXXXXXXXXXX.XXXXXXXXX"
};
