/* XPM */
static char *maximizeA3_big[] = {
/* columns rows colors chars-per-pixel */
"48 108 48 1 ",
"  c #032702",
". c #263136",
"X c #273138",
"o c #283138",
"O c #2A303C",
"+ c #2A313C",
"@ c #14571E",
"# c #15581E",
"$ c #1A5625",
"% c #1A5426",
"& c #165B20",
"* c #175E21",
"= c #1B7725",
"- c #1B7726",
"; c #1B7827",
": c #227B32",
"> c #237D33",
", c #237E34",
"< c #2E6644",
"1 c #2E6844",
"2 c #2F6944",
"3 c #248136",
"4 c #27BC3B",
"5 c #26BD3B",
"6 c #26BC3C",
"7 c #27BC3C",
"8 c #26BD3C",
"9 c #389254",
"0 c #399354",
"q c #389355",
"w c #389455",
"e c #34AC4F",
"r c #34AD4F",
"t c #34AF50",
"y c #35B051",
"u c #2ED446",
"i c #2ED547",
"p c #2FD647",
"a c #2ED648",
"s c #3AE559",
"d c #3AE55A",
"f c #3AE65A",
"g c #44DC69",
"h c #49DC70",
"j c #49DD70",
"k c #4ADD70",
"l c #7AD082",
"z c #7AD083",
/* pixels */
"++++++++++++++++++++++++++++++++++++++++++++++++",
"++++++++++++++++++++++++++++++++++++++++++++++++",
"++++++++++++++++++++++++++++++++++++++++OO++++++",
"+++++++O++++++++++++++++++++++++++++++++++++++++",
"++++++OO++++++++OOO++O+O++++++++++++++++++++++++",
"+++++++++O++++++++O+++O+++++++O++O++++++++++++++",
"+++++++++O++++++++++++++++++++O+O+++++++++++++O+",
"++++++++++++++++++++++++++++++++++++++++OOO+++OO",
"++++++++++OOO+++++++++++++++++++++++++++++++++++",
"++++++++++++O+++++++++++++++++++++++++++++O+++++",
"+++++O++++++++++++++++++++++++++OO++O+++++OO++++",
"++++OO++++++++++++++++++++++++++O+++OO++++++++++",
"O+++OOO++++++OO+..wwjjzzzzjjqq..O++++O++++++++OO",
"OO++O++++++++O++..wwjjzzzzjjqq..++++OO+++++O++O+",
"++++++++++++++22zzzzzzzzzzzzzzzz22+++++++++O++++",
"++++++++++++++22zzzzzzzzzzzzzzzz22+++++++++O++++",
"++++++++++++22zzzzzzzzzzzzzzzzzzzz22++++++++OO++",
"O+++++OO++++22zzzzzzzzzzzzzzzzzzzz22++++O++++O++",
"O+++++O+++..zzzzzzzzzzzzzzzzzzzzzzzzoo++OO++++++",
"O+++++++++..zzzzzzzzzzzzzzzzzzzzzzzzoo++++++++++",
"++++++++++wwzzzzzzzzzzzzzzzzzzzzzzzzqq++++++++++",
"++++++++++wwzzzzzzzzzzzzzzzzzzzzzzzzqq++++++++++",
"OO+++++O++jjzzzzzzzzzzzzzzzzzzzzzzzzjj++O+++OO++",
"+O++++OO++jjzzzzzzzzzzzzzzzzzzzzzzzzjj+OO+++O+++",
"++++++++++zzzzzzzzzzzzzzzzzzzzzzzzzzzz++++++++++",
"++++++++++zzzzzzzzzzzzzzzzzzzzzzzzzzzz++++++OO++",
"++++OO++++zzzzzzzzzzzzzzzzzzzzzzzzzzzz+++++OO+++",
"O+++O+++++zzzzzzzzzzzzzzzzzzzzzzzzzzzz+++++O++++",
"OO++++++++jjzzzzzzzzzzzzzzzzzzzzzzzzjj+++++O++++",
"++++OO++++jjzzzzzzzzzzzzzzzzzzzzzzzzjj+++++O++++",
"++++O+++++qqzzzzzzzzzzzzzzzzzzzzzzzzqq++++++++++",
"++++++++++qqzzzzzzzzzzzzzzzzzzzzzzzzqq++++++++++",
"++++O+++++..zzzzzzzzzzzzzzzzzzzzzzzzXX++++++++++",
"++++O+++++..zzzzzzzzzzzzzzzzzzzzzzzzXX++++++++++",
"+O++O+++++++22zzzzzzzzzzzzzzzzzzzz<<++++O++++OO+",
"OO++++++++++22zzzzzzzzzzzzzzzzzzzz<<++++OO++++O+",
"++++++++++++++22zzzzzzzzzzzzzzzz<<++++++++++++++",
"++++OO++++++OO22zzzzzzzzzzzzzzzz<<++++++++++++++",
"++++OO++++++OO++ooqqjjzzzzjjqqXX++++++++++OO++++",
"++++++++++++++++ooqqjjzzzzjjqqXX++++++++++O++++O",
"OO+++OOO++++++++++++++++++++OO+++++++++++++O+++O",
"+O+++++++++++++++++++++++++++O++++++++++++OO+++O",
"++++++++++OOO+++++++++++++++++++OO++++O+++++++++",
"++++++++++OOO++++++++++++++++++++O+++OO+++++++++",
"OO++++++++++++++O++++++O+++OO++++++OOO++++++++++",
"O+++++OO++++++++O+++++O+++OOO+++++++++++++++++OO",
"++++++O+++++++++OO+++++O++++O+++++++++++++O++++O",
"++++++++++++OO++++++++++++++++++++++++++++OO++++",
"++++++++++++++++++++++++++++++++++++++++++OO++++",
"+++++++++++O++++++++++++++++++++OO+++++++OO+++++",
"OO+++++++++OOO+++++++OO++++O++++++++++++++++++++",
"+O+++++++++OO++++++++++++OOO++++++++++++++++++++",
"++++++++++++++++++++++++++++++++++++++++++++++++",
"++++++++++++++++++++++++++++++++++++++++++++++++",
"++++++++++++++++++++++++++++++++++++++++++++++++",
"++++++++++++++++++++++++++++++++++++++++++++++++",
"++++OO++++++++++++++++++O++++O++++++++++++++OO++",
"O++++O++++++++++++++++++O++++OO++++++++++++++O++",
"OO++++++++++O++++++++OO+O+++++++++++OO++++++++++",
"++++++++++++O+++OOO++O++++++++++++++O+++++++++++",
"++++++++++++O+++++++++++++++++++++++O++++++OO+++",
"+++++++++++OO+++++++++++++++++++++++++++++OOO+++",
"O+++OO++++OO++++++OO++++OO++O+++++OO++++++++O+++",
"O+++O++++++++++++++O++++O+++OO++++O+++++++++++++",
"O++++O+++++++O++++OO++++++++++++++++++++++++++++",
"++++OO++++++O+++++OO+++++++++++++++++++O++++++++",
"++++++++++++++++++;;88zzzz88--+++++++++OOO++++++",
"++++++++++++++++++;;88zzzz88--++++++++OOO+++OOO+",
"+O++++OO++++++$$ppzzzzzzzzzzzzaa$$++++++++++OO++",
"+OO++++O++++++$$ppzzzzzzzzzzzzaa$$+++++++++++O++",
"++++++++++++$$ffzzzzzzzzzzzzzzzzff$$++++++++++++",
"++++++++++++$$ffzzzzzzzzzzzzzzzzff$$++++++++++++",
"+++++++++O++ppzzzzzztt::::::,,ggzzpp++++++++++OO",
"++++++++++++ppzzzzzztt::::::,,ggzzpp+++++OO++++O",
"++++++OO++;;zzzzzzzzzz&&      33zzzz--+++++++++O",
"+OOO+++O++;;zzzzzzzzzz&&      33zzzz--++++++++++",
"++OO++++++55zzzzrrzzzzzz&&    >>zzzzzz++++++++++",
"++O+++++++55zzzzrrzzzzzz&&    >>zzzzzz++++++++++",
"++++++++++zzzzzz>>@@zzzzzz**  >>zzzzzz+++++O++OO",
"++++++++++zzzzzz>>@@zzzzzz**  >>zzzzzz+++OOO++++",
"++++++++++zzzzzz>>  @@zzzzzz**>>zzzzzz++++++++++",
"++++O+++++zzzzzz>>  @@zzzzzz**>>zzzzzz++++++++++",
"+O++O+++++55zzzz>>    ##zzzzzzyyzzzz55++++++++++",
"OO++++++++55zzzz>>    ##zzzzzzyyzzzl55+++++++++O",
"O+++++++++--zzzz33      ##zzzzzzzzzz--++++++++OO",
"++++++++++--zzzz33      ##zzzzzzzzzz--+++++O++O+",
"++++++++++++zzzzgg,,::::::rrzzzzzzpp++++++++++++",
"++++++++++++zzzzgg,,::::::rrzzzzzzpp++++++OO++++",
"+O++++OO++++$$zzzzzzzzzzzzzzzzzzff%%O+++++++O+++",
"OO+++++O++++$$zzzzzzzzzzzzzzzzzzff%%O+++++++O+++",
"+++++++++++O++$$zzzzzzzzzzzzzzpp%%++O++++O++O+++",
"++++++++++++++$$zzzzzzzzzzzzzzpp$$++++++OO++++++",
"O++++++++++O++++o+--zzzzzz88--++++++++++++++++++",
"O+++++O+++O+++++++--zzzzzz88--++++++++++++++OO++",
"O+++++OO++++++++++++++++++++++++++++++O++++++O++",
"++++++++++++++++++++++++++++++++OOO+++OO++++++++",
"++++++++++++++++OOO+++OO+++++++++++++++++++++++O",
"++++++++++++++++++++++O++++++O++++++++++OO++++OO",
"OO+++++++OO++++O++++++++++++OO+++++O+++OO+++++++",
"O+++OOO++O++++OO++++++++++++++++++OO+++O++++++++",
"++++OO++++++++++++++++OOOO++++++++O++++O++++++++",
"+++++O++++++++++OO+++++O+O++O+++++OO++++O+++++++",
"++++++++++++OO+++O++++++++++O+++++++++++OO++++OO",
"++++++++O++++O++++++++++++++O++++++++++++++++++O",
"OO++++OOOO+++OO++++++O++++++++++++OO++++++OOO+++",
"+O++++O++++++O++++++OO++++++O++++++O++++++++++++",
"++++++++++++++++++++++++++++OO++++++++OO++++++++",
"+++++++++++++++++++O++++OO++++++++++++O+++++++++"
};
