/* XPM */
static char *minimizeA_big[] = {
/* columns rows colors chars-per-pixel */
"48 108 58 1 ",
"  c #2D3137",
". c #2B303A",
"X c #2C3138",
"o c #2D3138",
"O c #2A303C",
"+ c #2A313C",
"@ c #5B4922",
"# c #5D4A21",
"$ c #5E4B21",
"% c #62664A",
"& c #64684A",
"* c #65694B",
"= c #816521",
"- c #826620",
"; c #836620",
": c #846720",
"> c #80773C",
", c #C7A838",
"< c #C7A839",
"1 c #C9A838",
"2 c #C9A938",
"3 c #C8A939",
"4 c #C9A939",
"5 c #8D925D",
"6 c #8E935C",
"7 c #8E935D",
"8 c #8F945D",
"9 c #B2B15F",
"0 c #B3B25F",
"q c #DEC246",
"w c #DFC346",
"e c #DFC347",
"r c #DFC447",
"t c #DFC448",
"y c #E0C447",
"u c #E0C448",
"i c #E1C448",
"p c #E0C549",
"a c #E8D85E",
"s c #E8D95F",
"d c #D5DC7E",
"f c #D4DC7F",
"g c #D5DD7F",
"h c #D6DD7F",
"j c #D7DD7F",
"k c #E8D960",
"l c #EFF383",
"z c #EAF388",
"x c #EBF388",
"c c #EBF389",
"v c #ECF489",
"b c #ECF589",
"n c #ECF48A",
"m c #EDF58A",
"M c #F0F484",
"N c #F0FA8B",
"B c #F1FA8B",
"V c #F1FA8C",
/* pixels */
"++++++++++++++++++++++++++++++++++++++++++++++++",
"++++++++++++++++++++++++++++++++++++++++++++++++",
"++++++++++++++++++++++++++++++++++++++++OO++++++",
"+++++++O++++++++++++++++++++++++++++++++++++++++",
"++++++OO++++++++++++++++++++++++++++++++++++++++",
"+++++++++O++++++OO++++O++++++++O+O++++++++++++++",
"+++++++++O++++++++O+++++++++++O+O+++++++++++++O+",
"++++++++++++++++++++++O+++++++++++++++++OOO+++OO",
"++++++++++OOO+++++++++++++++++++++++++++++++++++",
"++++++++++++O+++++++++++++++++++++++++++++O+++++",
"+++++O++++++++++++++++++++++++++OO++O+++++OO++++",
"++++OO++++++++++++++++++++++++++O+++OO++++++++++",
"O+++OOO++++++OO+  88hhbbbbhh77  O++++O++++++++OO",
"OO++O++++++++O++  88hhbbbbhh77  ++++OO+++++O++O+",
"++++++++++++++**bbVVVVVVVVVVVVbb**+++++++++O++++",
"++++++++++++++**bbVVVVVVVVVVVVbb**+++++++++O++++",
"++++++++++++**VVVVVVVVVVVVVVVVVVBB**++++++++OO++",
"O+++++OO++++**VVVVVVVVVVVVVVVVVVBB**++++O++++O++",
"O+++++O+++  bbVVVVVVVVVVVVVVVVVVVVxxoo++OO++++++",
"O+++++++++  bbVVVVVVVVVVVVVVVVVVVVxxoo++++++++++",
"++++++++++88VVVVVVVVVVVVVVVVVVVVVVVV77++++++++++",
"++++++++++88VVVVVVVVVVVVVVVVVVVVVVVV77++++++++++",
"OO+++++O++hhVVVVVVVVVVVVVVVVVVVVVVVVhh++O+++OO++",
"+O++++OO++hhVVVVVVVVVVVVVVVVVVVVVVVVhh+OO+++O+++",
"++++++++++bbVVVVVVVVVVVVVVVVVVVVVVVVbb++++++++++",
"++++++++++bbVVVVVVVVVVVVVVVVVVVVVVVVbb++++++OO++",
"++++OO++++bbVVVVVVVVVVVVVVVVVVVVVVVVxx+++++OO+++",
"O+++O+++++bbVVVVVVVVVVVVVVVVVVVVVVVVxx+++++O++++",
"OO++++++++hhVVVVVVVVVVVVVVVVVVVVVVVVhh+++++O++++",
"++++OO++++hhVVVVVVVVVVVVVVVVVVVVVVVVhh+++++O++++",
"++++O+++++77VVVVVVVVVVVVVVVVVVVVVVVV77++++++++++",
"++++++++++77VVVVVVVVVVVVVVVVVVVVVVVV77++++++++++",
"++++O+++++  bbVVVVVVVVVVVVVVVVVVVVxxoo++++++++++",
"++++O+++++  bbVVVVVVVVVVVVVVVVVVVVxxoo++++++++++",
"OO++++++++++**BBVVVVVVVVVVVVVVVVBB%%++++O++++OO+",
"+O++++++++++**BBVVVVVVVVVVVVVVVVBB%%++++OO++++O+",
"++++++++++++++**xxVVVVVVVVVVVVxx%%++++++++++++++",
"++++OO++++++OO**xxVVVVVVVVVVVVxx%%++++++++++++++",
"++++OO++++++OO++oo77hhbbbbhh77oo++++++++++OO++++",
"O+++O+++++++++++oo77hhbbbbhh77oo++++++++++O++++O",
"OO+++OO+++++++++++++++++++++OO+++++++++++++O+++O",
"+++++O+++++++++++++++++++++++O++++++++++++OO+++O",
"++++++++++OOO+++++++++++++++++++OO++++O+++++++++",
"++++++++++OOO++++++++++++++++++++O+++OO+++++++++",
"OO+++++O++++++++O++++++O+++OO++++++OOO++++++++++",
"+O++++OO++++++++O+++++O+++OOO+++++++++++++++++OO",
"++++++++++++++++OO+++++O++++O+++++++++++++O++++O",
"++++++++++++OO++++++++++++++++++++++++++++OO++++",
"++++++++++++++++++++++++++++++++++++++++++OO++++",
"+++++++++++O++++++++++++++++++++OO+++++++OO+++++",
"+O+++++++++OOO+++++++OO++++O++++++++++++++++++++",
"+OO++++++++OO++++++++++++OOO++++++++++++++++++++",
"++++++++++++++++++++++++++++++++++++++++++++++++",
"++++++++++++++++++++++++++++++++++++++++++++++++",
"++++++++++++++++++++++++++++++++++++++++++++++++",
"++++++++++++++++++++++++++++++++++++++++++++++++",
"++++OO++++++++++++++++++O++++O++++++++++++++OO++",
"O++++O++++++++++++++++++O++++OO++++++++++++++O++",
"OO++++++++++O++++++++OO+O+++++++++++OO++++++++++",
"++++++++++++O+++OOO++O++++++++++++++O+++++++++++",
"++++++++++++O+++++++++++++++++++++++O++++++OO+++",
"+++++++++++OO+++++++++++++++++++++++++++++OOO+++",
"O+++OO++++OO++++++OO++++OO++O+++++OO++++++++O+++",
"O+++O++++++++++++++O++++O+++OO++++O+++++++++++++",
"O++++O++++++OO+++OOO++++++++++++++++++++++++++++",
"++++OO+++++++++++O+++++++++++++++O+++++O++++++++",
"++++++++++++++++..::22ppyy22;;..+++++++OOO++++++",
"++++++++++++++++..::22ppyy22;;..++++++OOO+++OOO+",
"+O++++OO++++++$$ppMMVVVVVVVVMMrr$$++++++++++OO++",
"+OO++++O++++++$$ppMMVVVVVVVVMMrr$$+++++++++++O++",
"++++++++++++$$kkVVVVVVVVVVVVVVVVss$$++++++++++++",
"++++++++++++$$kkVVVVVVVVVVVVVVVVss$$++++++++++++",
"+++++++++O..ppVVVVVVVVVVVVVVVVVVVVqq..++++++O+++",
"++++++++++..ppVVVVVVVVVVVVVVVVVVVVqq..++++++O+++",
"++++++OO++::MMVVVVVVVVVVVVVVVVVVVVMM;;++++++OO++",
"+OOO+++O++::MMVVVVVVVVVVVVVVVVVVVVMM;;++OO++++++",
"++OO++++++22VVVVVVVVVVVVVVVVVVVVVVVV<<++++++++++",
"++O+++++++22VVVVVVVVVVVVVVVVVVVVVVVV<<++++++OO++",
"++++++++++ppVV99>>>>>>>>>>>>>>>>99VVttOO++++++++",
"++++++++++ppVV99>>>>>>>>>>>>>>>>99VVttOO++++++++",
"++++O+++++ppVV99>>>>>>>>>>>>>>>>99VVqq++++++++++",
"++++O+++++ppVV99>>>>>>>>>>>>>>>>99VVqq++++++++++",
"+O++O+++++22VVVVVVVVVVVVVVVVVVVVVVVV<<++++++OO++",
"OO++++++++22VVVVVVVVVVVVVVVVVVVVVVVV<<++++++OO++",
"O+++++++++;;MMVVVVVVVVVVVVVVVVVVVVll;;+++++++O++",
"++++++++++;;MMVVVVVVVVVVVVVVVVVVVVll;;++++++OO++",
"++++++++++..rrVVVVVVVVVVVVVVVVVVVVqq++++++++++++",
"++++++++++..rrVVVVVVVVVVVVVVVVVVVVqq++++++++++++",
"+O+++OOO++++$$ssVVVVVVVVVVVVVVVVss@@++++++++OO++",
"+O+++++O++++$$ssVVVVVVVVVVVVVVVVss@@++++++++O+++",
"++++++++++O+O+$$qqMMVVVVVVVVllqq@@+++++++O++O+++",
"+++++++++++OOO$$qqMMVVVVVVVVllqq@@+++++++O++++++",
"OO+++++++++O++++..;;<<yyyy<<;;++++++++++++++++++",
"O+++++O+++++++++..;;<<yyyy<<;;+++++++++++++++O++",
"O+++++O+++++++++++++++++++++++++++++++O++++++O++",
"+++++++++++++++++++++++++++++++++OO+++OOO+++++++",
"++++++++++++++++OOO+++O++++++++++++++++++O+++++O",
"++++++++++++++++O+++++O++++++O++++++++++OO+++++O",
"OO+++++++OO++++O++++++++++++OO+++++O++++O+++++++",
"+++++OO+OO+++++O++++++++O+++O++++++O+++O++++++++",
"+++OOO++++++++++++++++OOOO++++++++O++++O++++++++",
"+++++O+++++++++++O+++++O+O++O+++++OO++++O+++++O+",
"++++++++++++OO+++O+++++O++++O++++++O++++O+++++OO",
"++++++++O++++OO++++++++++++++++++++++++++++++++O",
"OO++++OOO++++OO++++++O++++++++++++OO++++++OOO+++",
"+OO+++++++++OO+++++++O++++++O++++++O++++++O+++++",
"+++++++++++++++++++++++++O++O++++++O++O+++++++++",
"+++++++++++++++++++O++++OO++++++++++++O+++++++++"
};
