/* XPM */
static char *minimizeO_big[] = {
/* columns rows colors chars-per-pixel */
"48 108 34 1 ",
"  c #2B303A",
". c #2A303C",
"X c #2A313C",
"o c #5B4922",
"O c #5D4A21",
"+ c #5E4B21",
"@ c #816521",
"# c #826620",
"$ c #836620",
"% c #846720",
"& c #80773C",
"* c #C7A838",
"= c #C7A839",
"- c #C9A838",
"; c #C9A938",
": c #C8A939",
"> c #C9A939",
", c #B2B15F",
"< c #B3B25F",
"1 c #DEC246",
"2 c #DFC346",
"3 c #DFC347",
"4 c #DFC447",
"5 c #DFC448",
"6 c #E0C447",
"7 c #E0C448",
"8 c #E1C448",
"9 c #E0C549",
"0 c #E8D85E",
"q c #E8D95F",
"w c #E8D960",
"e c #EFF383",
"r c #F0F484",
"t c #F1FA8C",
/* pixels */
"XXXXXXXXXXXXXXXXXXXXXXXXXXXXXXXXXXXXXXXXXXXXXXXX",
"XXXXXXXXXXXXXXXXXXXXXXXXXXXXXXXXXXXXXXXXXXXXXXXX",
"XXXXXXXXXXXXXXXXXXXXXXXXXXXXXXXXXXXXXXXX..XXXXXX",
"XXXXXXX.XXXXXXXXXXXXXXXXXXXXXXXXXXXXXXXXXXXXXXXX",
"XXXXXX..XXXXXXXX..XXXXXXXXXXXXXXXXXXXXXXXXXXXXXX",
"XXXXXXXXX.XXXXXX..XXXX.XXXXXXX.XX.XXXXXXXXXXXXXX",
"XXXXXXXXX.XXXXXXXXXXXX.XXXXXXX.X.XXXXXXXXXXXXX.X",
"XXXXXXXXXXXXXXXXXXXXXXXXXXXXXXXXXXXXXXXX...XXX..",
"XXXXXXXXXX...XXXXXXXXXXXXXXXXXXXXXXXXXXXXXXXXXXX",
"XXXXXXXXXXXX.XXXXXXXXXXXXXXXXXXXXXXXXXXXXX.XXXXX",
"XXXXX.XXXXXXXXXXXXXXXXXXXXXXXXXX..XX.XXXXX..XXXX",
"XXXX..XXXXXXXXXXXXXXXXXXXXXXXXXX.XXX..XXXXXXXXXX",
".XXX...XXXXXX..X  %%--9966--$$  .XXXX.XXXXXXXX..",
"..XX.XXXXXXXX.XX  %%--9966--$$  XXXX..XXXXX.XX.X",
"XXXXXXXXXXXXXX++99rrttttttttrr44++XXXXXXXXX.XXXX",
"XXXXXXXXXXXXXX++99rrttttttttrr44++XXXXXXXXX.XXXX",
"XXXXXXXXXXXX++wwttttttttttttttttqq++XXXXXXXX..XX",
".XXXXX..XXXX++wwttttttttttttttttqq++XXXX.XXXX.XX",
".XXXXX.XXX  99tttttttttttttttttttt22  XX..XXXXXX",
".XXXXXXXXX  99tttttttttttttttttttt22  XXXXXXXXXX",
"XXXXXXXXXX%%rrttttttttttttttttttttrr$$XXXXXXXXXX",
"XXXXXXXXXX%%rrttttttttttttttttttttrr$$XXXXXXXXXX",
"..XXXXX.XX--tttttttttttttttttttttttt**XX.XXX..XX",
"X.XXXX..XX--tttttttttttttttttttttttt**X..XXX.XXX",
"XXXXXXXXXX99tt<<&&&&&&&&&&&&&&&&<<tt55XXXXXXXXXX",
"XXXXXXXXXX99tt<<&&&&&&&&&&&&&&&&<<tt55XXXXXX..XX",
"XXXX..XXXX99tt<<&&&&&&&&&&&&&&&&<<tt22XXXXX..XXX",
".XXX.XXXXX99tt<<&&&&&&&&&&&&&&&&<<tt22XXXXX.XXXX",
"..XXXXXXXX--tttttttttttttttttttttttt**XXXXX.XXXX",
"XXXX..XXXX--tttttttttttttttttttttttt**XXXXX.XXXX",
"XXXX.XXXXX$$rrttttttttttttttttttttee$$XXXXXXXXXX",
"XXXXXXXXXX$$rrttttttttttttttttttttee$$XXXXXXXXXX",
"XXXX.XXXXX  44tttttttttttttttttttt22XXXXXXXXXXXX",
"XXXX.XXXXX  44tttttttttttttttttttt22XXXXXXXX..XX",
"X.XX.XXXXXXX++qqttttttttttttttttqqooXXXXXXX..XXX",
"..XXXXXXXXXX++qqttttttttttttttttqqooXXXXXXX.XXXX",
"XXXXXXXXXXXXXX++22rrttttttttee22ooXXXXXXXXX.XXXX",
"XXXX..XXXXXXX.++22rrttttttttee22ooX.XXXXXXXXXXXX",
"XXXX..XXXXXX..XX  $$**6666**$$XXXXX.XXXXXXXX..XX",
"XXXXXXXXXXXX.XXX  $$**6666**$$XXXXXXXXXXXXXXX.XX",
"..XXX...XXXXXXXXXXXXXXXXXXXX..XXXXXXXXXX.XXX..XX",
"X.XXXXXXXXXX.XXXXXXXXXXXXXXXX.XXXXXXXXXX..XX.XXX",
"XXXXXXXXXX...XXXXXXXXXXXXXXXXXXXXXXXXXXXXXXXXXXX",
"XXXXXXXXXXX.XXXXXXXXXXXXXXXXXXXXXXXXXXXXXXXXXXXX",
"..XXXXXXXXX.XXXX..XXXXXXXXX..XXXXXXXXX..XXXXXXXX",
".XXXXX..XXXXXXXX.XXXXX..XX...XXXXX..XXXX.XXXXXXX",
"XXXXXX.XXXXXX.XX.XXXXX.XXXXX.XXXXXX.XXXX.XXXX..X",
"XXXXXXXXXXXXX.XXXXXXXXXXXXXXXXXXXX..XXXX.XXXX.XX",
"XXXXXXXXXXXXXXXXXXXXXXXXXXXXXXXXXXXXXXXXXX.XXXXX",
"XXXXXXXXXXX.XXXXXXXXXXXXXXXXXXXX..XXXXXXX..XXXXX",
"..XXXXXXXXX...XXXXXXX..XXXX.XXXXXXXXXXXXXXXXXXXX",
"X.XXXXXXXXX..XXXXXXXXXXXX...XXXXXXXXXXXXXXXXXXXX",
"XXXXXXXXXXXXXXXXXXXXXXXXXXXXXXXXXXXXXXXXXXXXXXXX",
"XXXXXXXXXXXXXXXXXXXXXXXXXXXXXXXXXXXXXXXXXXXXXXXX",
"XXXXXXXXXXXXXXXXXXXXXXXXXXXXXXXXXXXXXXXXXXXXXXXX",
"XXXXXXXXXXXXXXXXXXXXXXXXXXXXXXXXXXXXXXXXXXXXXXXX",
"XXXX..XXXXXXXXXXXXXXXXXX.XXXX.XXXXXXXXXXX..XXX..",
".XXXX.XXXXXXXXXXXXXXXXXX.XXXX..XXXXXXXXXXX.XXXXX",
"..XXXXXXXXXX.XXXXXXXX..X.XXXXXXXXXXX..XXXXXXXXXX",
"XXXXXXXXXXXX.XXX...XX.XXXXXXXXXXXXXX.XXXXXXXXXXX",
"XXXXXXXXXXXX.XXXXXXXXXXXXXXXXXXXXXXX.XXX.XXXXX..",
"XXXXXXXXXXX..XXXXXXXXXXXXXXXXXXXXXXXXXXX..XXXX.X",
".XXX..XXXX..XXXXXX..XXXX..XX.XXXXX..XXXXXXXXXXXX",
".XXX.XXXXXXXXXXXXXX.XXXX.XXX..XXXX.XXXXXXXXXXXXX",
".XXXX.XXXXXX..XXX...XXXXXXXXXXXXXXXXXXXXXXXXXXXX",
"XXXX..XXXXXXXXXXX.XXXXXXXXXXXXXX..XXXX..XXXXXXXX",
"XXXXXXXXXXXXXXXX  %%--9966--$$  XXXXXXX..XXXXXXX",
"XXXXXXXXXXXXXXXX  %%--9966--$$  XXXXXXX..XXX..XX",
"X.XXXX..XXXXXX++99rrttttttttrr44++XXXXXXXXXX..XX",
"X..XXXX.XXXXXX++99rrttttttttrr44++XXXXXXXXXX..XX",
"XXXXXXXXXXXX++wwttttttttttttttttqq++XXXXXXXXXXXX",
"XXXXXXXXXXXX++wwttttttttttttttttqq++XXXXXXXXXXXX",
"XXXXXXXXX.  99tttttttttttttttttttt22  XXXXXX..XX",
"XXXXXXXXXX  99tttttttttttttttttttt22  XX.XXXX.XX",
"XXXXXX..XX%%rrttttttttttttttttttttrr$$XX..XXXXXX",
"X...XXX.XX%%rrttttttttttttttttttttrr$$XXXXXXXXXX",
"XX..XXXXXX--tttttttttttttttttttttttt**XXXXXXXXXX",
"XX.XXXXXXX--tttttttttttttttttttttttt**XXXXXXXXXX",
"XXXXXXXXXX99tt<<&&&&&&&&&&&&&&&&<<tt55XX.XXX..XX",
"XXXXXXXXXX99tt<<&&&&&&&&&&&&&&&&<<tt55X..XXX.XXX",
"XXXX.XXXXX99tt<<&&&&&&&&&&&&&&&&<<tt22XXXXXXXXXX",
"XXXX.XXXXX99tt<<&&&&&&&&&&&&&&&&<<tt22XXXXXXXXXX",
"X.XX.XXXXX--tttttttttttttttttttttttt**XXXXXXXX.X",
"..XXXXXXXX--tttttttttttttttttttttttt**XXXXXXX..X",
".XXXXXXXXX$$rrttttttttttttttttttttee$$XXXX.XX.XX",
"XXXXXXXXXX$$rrttttttttttttttttttttee$$XXXX.XXXXX",
"XXXXXXXXXX  44tttttttttttttttttttt22XXXXXXXXXXXX",
"XXXXXXXXXX  44tttttttttttttttttttt22XXXXXXXXXXXX",
"X.XXX...XXXX++qqttttttttttttttttqqooXXXXXXXX..XX",
"X.XXXXX.XXXX++qqttttttttttttttttqqooXXXXXXXX.XXX",
"XXXXXXXXXXX..X++22rrttttttttee22ooXXXXXXX.XX.XXX",
"XXXXXXXXXXXX..++22rrttttttttee22ooXXXXXXX.XXXXXX",
"..XXXXXXXXX.XXXX  $$**6666**$$XXXXXXXXXXXXXXXXXX",
".XXXXX.XXX.XXXXX  $$**6666**$$XXXXXXXXXXXXXXX.XX",
".XXXXX.XXXXXXXXXXXXXXXXXXXXXXXXXXXXXXX.XXXXXX.XX",
"XXXXXXXXXXXXXXXXXXXXXXXXXXXXXXXXX..XXX...XXXXXXX",
"XXXXXXXXXXXXXXXX...XXX.XXXXXXXXXXXXXXXXXX.XXXXX.",
"XXXXXXXXXXXXXXXX.XXXXX.XXXXXX.XXXXXXXXXX..XXXXX.",
"..XXXXXXX..XXXX.XXXXXXXXXXXX..XXXXX.XXXX.XXXXXXX",
"XXXXX..X..XXXXX.XXXXXXXX.XXX.XXXXXX.XXX.XXXXXXXX",
"XXX...XXXXXXXXXXXXXXXX....XXXXXXXX.XXXX.XXXXXXXX",
"XXXXX.XXXXXXXXXXX.XXXXX.X.XX.XXXXX..XXXX.XXXXX.X",
"XXXXXXXXXXXX..XXX.XXXXX.XXXX.XXXXXX.XXXX.XXXXX..",
"XXXXXXXX.XXXX..XXXXXXXXXXXXXXXXXXXXXXXXXXXXXXXX.",
"..XXXX...XXXX..XXXXXX.XXXXXXXXXXXX..XXXXXX...XXX",
"X..XXXXXXXXX..XXXXXXX.XXXXXX.XXXXXX.XXXXXX.XXXXX",
"XXXXXXXXXXXXXXXXXXXXXXXXX.XX.XXXXXX.XX.XXXXXXXXX",
"XXXXXXXXXXXXXXXXXXX.XXXX..XXXXXXXXXXXX.XXXXXXXXX"
};
