/* XPM */
static char *restoreA_big[] = {
/* columns rows colors chars-per-pixel */
"48 108 44 1 ",
"  c #032702",
". c #2A313C",
"X c #14571E",
"o c #15581E",
"O c #1A5625",
"+ c #1A5426",
"@ c #165B20",
"# c #175E21",
"$ c #1B7725",
"% c #1B7726",
"& c #1B7827",
"* c #227B32",
"= c #237D33",
"- c #237E34",
"; c #2E6644",
": c #2E6844",
"> c #2F6944",
", c #248136",
"< c #27BC3B",
"1 c #26BD3B",
"2 c #26BC3C",
"3 c #27BC3C",
"4 c #26BD3C",
"5 c #389254",
"6 c #399354",
"7 c #389355",
"8 c #389455",
"9 c #34AC4F",
"0 c #34AD4F",
"q c #34AF50",
"w c #35B051",
"e c #2ED446",
"r c #2ED547",
"t c #2FD647",
"y c #2ED648",
"u c #3AE559",
"i c #3AE55A",
"p c #3AE65A",
"a c #44DC69",
"s c #49DC70",
"d c #49DD70",
"f c #4ADD70",
"g c #7AD082",
"h c #7AD083",
/* pixels */
"................................................",
"................................................",
"................................................",
"................................................",
"................................................",
"................................................",
"................................................",
"................................................",
"................................................",
"................................................",
"................................................",
"................................................",
"..................88ddhhhhdd77..................",
"..................88ddhhhhdd77..................",
"..............>>hhhhhhhhhhhhhhhh>>..............",
"..............>>hhhhhhhhhhhhhhhh>>..............",
"............>>hhhhhhhhhhhhhhhhhhhh>>............",
"............>>hhhhhhhhhhhhhhhhhhhh>>............",
"............hhhhhhhhhhhhhhhhhhhhhhhh............",
"............hhhhhhhhhhhhhhhhhhhhhhhh............",
"..........88hhhhhhhhhhhhhhhhhhhhhhhh77..........",
"..........88hhhhhhhhhhhhhhhhhhhhhhhh77..........",
"..........ddhhhhhhhhhhhhhhhhhhhhhhhhdd..........",
"..........ddhhhhhhhhhhhhhhhhhhhhhhhhdd..........",
"..........hhhhhhhhhhhhhhhhhhhhhhhhhhhh..........",
"..........hhhhhhhhhhhhhhhhhhhhhhhhhhhh..........",
"..........hhhhhhhhhhhhhhhhhhhhhhhhhhhh..........",
"..........hhhhhhhhhhhhhhhhhhhhhhhhhhhh..........",
"..........ddhhhhhhhhhhhhhhhhhhhhhhhhdd..........",
"..........ddhhhhhhhhhhhhhhhhhhhhhhhhdd..........",
"..........77hhhhhhhhhhhhhhhhhhhhhhhh77..........",
"..........77hhhhhhhhhhhhhhhhhhhhhhhh77..........",
"............hhhhhhhhhhhhhhhhhhhhhhhh............",
"............hhhhhhhhhhhhhhhhhhhhhhhh............",
"............>>hhhhhhhhhhhhhhhhhhhh;;............",
"............>>hhhhhhhhhhhhhhhhhhhh;;............",
"..............>>hhhhhhhhhhhhhhhh;;..............",
"..............>>hhhhhhhhhhhhhhhh;;..............",
"..................77ddhhhhdd77..................",
"..................77ddhhhhdd77..................",
"................................................",
"................................................",
"................................................",
"................................................",
"................................................",
"................................................",
"................................................",
"................................................",
"................................................",
"................................................",
"................................................",
"................................................",
"................................................",
"................................................",
"................................................",
"................................................",
"................................................",
"................................................",
"................................................",
"................................................",
"................................................",
"................................................",
"................................................",
"................................................",
"................................................",
"................................................",
"..................&&44hhhh44%%..................",
"..................&&44hhhh44%%..................",
"..............OOtthhhhhhhhhhhhyyOO..............",
"..............OOtthhhhhhhhhhhhyyOO..............",
"............OOpphhhhhhhhhhhhhhhhppOO............",
"............OOpphhhhhhhhhhhhhhhhppOO............",
"............tthhhhhhqq******--aahhtt............",
"............tthhhhhhqq******--aahhtt............",
"..........&&hhhhhhhhhh@@      ,,hhhh%%..........",
"..........&&hhhhhhhhhh@@      ,,hhhh%%..........",
"..........11hhhh00hhhhhh@@    ==hhhhhh..........",
"..........11hhhh00hhhhhh@@    ==hhhhhh..........",
"..........hhhhhh==XXhhhhhh##  ==hhhhhh..........",
"..........hhhhhh==XXhhhhhh##  ==hhhhhh..........",
"..........hhhhhh==  XXhhhhhh##==hhhhhh..........",
"..........hhhhhh==  XXhhhhhh##==hhhhhh..........",
"..........11hhhh==    oohhhhhhwwhhhh11..........",
"..........11hhhh==    oohhhhhhwwhhhh11..........",
"..........%%hhhh,,      oohhhhhhhhhh%%..........",
"..........%%hhhh,,      oohhhhhhhhhh%%..........",
"............hhhhaa--******00hhhhhhtt............",
"............hhhhaa--******00hhhhhhtt............",
"............OOhhhhhhhhhhhhhhhhhhppOO............",
"............OOhhhhhhhhhhhhhhhhhhppOO............",
"..............OOhhhhhhhhhhhhhhttOO..............",
"..............OOhhhhhhhhhhhhhhttOO..............",
"..................%%hhhhhh44%%..................",
"..................%%hhhhhh44%%..................",
"................................................",
"................................................",
"................................................",
"................................................",
"................................................",
"................................................",
"................................................",
"................................................",
"................................................",
"................................................",
"................................................",
"................................................",
"................................................",
"................................................"
};
