/* XPM */
static char *rollupO_big[] = {
/* columns rows colors chars-per-pixel */
"48 108 4 1 ",
"  c #2A303C",
". c #2A313C",
"X c #6D8FB6",
"o c #6E8FB6",
/* pixels */
"................................................",
"................................................",
"................  ......................  ......",
"....... ........................................",
"......  ........................................",
"......... .................... .. ..............",
"......... ............ ....... . ............. .",
"................   ...  ................   ...  ",
"..........   ...... ............................",
".... ....... .....  ...................... .....",
"....  ....................  ....  .. .....  ....",
"  ........................ ....  ...  ..........",
" ... .....  .  .   .. ....  ...  .... ........  ",
"....  .... .. .......  .... ... ....  ..... .. .",
"........................................... ....",
"........................................... ....",
". ....  ................ .........  ........  ..",
"  ..... ..........  ....  ....  ... .... .... ..",
"........  .... ....  .......... ......    ......",
"........ .....  .... ................. .........",
" ................... ...........................",
" ..... ........................... .............",
" .....  .. ...........XXXX........  .... ...  ..",
".........  ...  ......XXXX.............  ... ...",
"............... ....XXXXXXXX....................",
"..........  ........XXXXXXXX....... ........  ..",
"  ........ .......XXXXXXXXXXXX.....   .....  ...",
" ...   .......... XXXXXXXXXXXX.....  ...... ....",
"....  ........ .XXXXXXXXXXXXXXXX........... ....",
"..... ........  XXXXXXXXXXXXXXXX........... ....",
"........... ...................... .............",
"..........  ......................  ............",
"....  ..................  .... .................",
".... .............. .... ....  . .....    ..... ",
"  ........ .......  ............ ..... .. ..... ",
". ........  ..........  ........ .............. ",
".........   ... ... ... ........................",
"..... ........  ..  ............................",
"....  ..................  ......  .....  .....  ",
" ........................ ..   .. ....    .... .",
"  ...  .....................  ..................",
"..... ..  ..... ............. ..................",
"......... ..... .. .. ..............  ....  ....",
"............... ..  .  ......... ... ...... ... ",
"  ..... ...................  ...  ............  ",
". ....  ..................   .......  ....  ....",
"........ .....  .... ....... ....... ...... ....",
"........  .... ....  ...........................",
"..........................................  ....",
"........... ....................  .......  .....",
". .........   .......  .... ....................",
".  ........  ............   ....................",
"................................................",
"................................................",
"................................................",
"................................................",
"....  .................. .... ..................",
" .... .................. ....  ............. ...",
"  .......... ........  . ...........  ....   ...",
"............ ...   .. .............. ......  ...",
"............ ....................... ...........",
"...........  ...................................",
" ...  ....  ......  ....  .. .....  ......... ..",
" ... .............. .... ...  .... .........  ..",
" .... ................... ....  ...   ...  ..  .",
"....  ..................  ..... ......... .... .",
".......... .. ....  ............................",
".........  .  ..... ... ........................",
". ....  ..............   ......... .  ..........",
".  .... ..........  .... ..... ...   ...........",
"........... ....... .... .....  ......... .... .",
"...........  ...........................  ....  ",
".........   .. ...........  ............ .... ..",
"..............  .......... ............. ....  .",
"......  .............................  . .......",
".   ... ........................   .. ..........",
"..  ............ .....XXXX.. ...................",
".. .............  ....XXXX..  ..................",
".........  .... ....XXXXXXXX......  ....  .. ...",
"......... ....  ....XXXXXXXX....... .... ...  ..",
"........  ....  . XXXXXXXXXXXX..................",
"......... .... ...XXXXXXXXXXXX..................",
"..  ............XXXXXXXXXXXXXXXX  .... .. ....  ",
".. .... ........XXXXXXXXXXXXXXXX .....  .  ... .",
"..  ... ............... ..................   ...",
"... ... ........................................",
"......... .... ................... .............",
".........  ..  ..................  ...  ........",
"...........   ..... ..... ........ .... ........",
"................... ......... ....  ............",
".  ................ .. .. ....  .......... .....",
".. ..   ..............  ..................  ....",
".......... .  ..................  .... ..   ... ",
"..........   .....  ............ ....  .......  ",
"....  ............ ...... ......................",
".... ...................  ...   ................",
" ...  .... .........  ...   .. .................",
"  .. .....  ......... ........  ................",
"....................................  .... .. ..",
"............ ................... ... .....  .  .",
"............ ......  ...........  ..............",
" ..........  .....   ...............  ..........",
" ....  ...  ........ ....  .... .... ....... ...",
" .... ................... ....  ...........  ...",
"................................ .... ... ....  ",
".... ........................... ....  .  ..... ",
"....  ... ....   ....  ...  .... ...............",
"  ......  .....   .... ... .... ................"
};
