/* XPM */
static char *rolldownI_big[] = {
/* columns rows colors chars-per-pixel */
"48 108 5 1 ",
"  c #2A303C",
". c #2A313C",
"X c #474951",
"o c #4A4B53",
"O c #707279",
/* pixels */
"................................................",
"................................................",
"........................................  ......",
"....... ........................................",
"......  ...........  ...........................",
"......... ........   ......... .. ..............",
"......... .......... ......... . ............. .",
"........................................   ...  ",
"..........   ...............  ..................",
".... ....... ........... .... ............ .....",
"....  .......... ....  .  ......  .. .....  ....",
"  ..............  .... ......... ...  ..........",
" ... .....  .  ................. .... ........  ",
"....  .... .. ......................  ..... .. .",
"..................  .... ...  ............. ....",
".................. ....  ... .............. ....",
". ....  ..................... ....  ........  ..",
"  ..... ..........  ........  ..... .... .... ..",
"........  .... ....  ....... .........    ......",
"........ .....  .... ...... .......... .........",
" ................... ...... ....................",
" ..... ........................... .............",
" .....  .. .......  ..............  .... ...  ..",
".........  ...  .. ....................  ... ...",
"............... ooOOOOOOOOOOOOXX................",
"..........  ....ooOOOOOOOOOOOOXX... ........  ..",
"  ........ .......ooOOOOOOOOXX.....   .....  ...",
" ...   ...........ooOOOOOOOOXX.....  ...... ....",
"....  ........ .....ooOOOOXX............... ....",
"..... ........  ....ooOOOOXX............... ....",
"........... ..........ooXX........ .............",
"..........  ..........ooXX........  ............",
"....  ..................  .... .................",
".... .............. .... ....  . .....    ..... ",
"  ........ .......  ............ ..... .. ..... ",
". ........  ..........  ........ .............. ",
".........   ... ... ... ........................",
"..... ........  ..  ............................",
"....  ..................  ......  .....  .....  ",
" ........................ ..   .. ....    .... .",
"  ...  .....................  ..................",
"..... ..  ..... ............. ..................",
"......... ..... .. .. ..............  ....  ....",
"............... ..  .  ......... ... ...... ... ",
"  ..... ...................  ...  ............  ",
". ....  ..................   .......  ....  ....",
"........ .....  .... ....... ....... ...... ....",
"........  .... ....  ...........................",
"..........................................  ....",
"........... ....................  .......  .....",
". .........   .......  .... ....................",
".  ........  ............   ....................",
"................................................",
"................................................",
"................................................",
"................................................",
"....  .................. .... ..................",
" .... .................. ....  ............. ...",
"  .......... ........  . ...........  ....   ...",
"............ ...   .. .............. ......  ...",
"............ ....................... ...........",
"...........  ...................................",
" ...  ....  ......  ....  .. .....  ......... ..",
" ... .............. .... ...  .... .........  ..",
" .... ................... ....  ................",
"....  ..................  ..... ................",
".......... .. ....  ............ ....  .......  ",
".........  .  ..... ... ........  .... ..   ... ",
". ....  ..............   .................  ....",
".  .... ..........  .... ..... ........... .....",
"........... ....... .... .....  ..  ............",
"...........  ..................... .... ........",
".........   .. ...........  .....  ...  ........",
"..............  . ........ ....... .............",
"......  ......... ..............................",
".   ... ..................................   ...",
"..  ........................ ... .....  .  ... .",
".. .........................  ..  .... .. ....  ",
".........  .... ooOOOOOOOOOOOOXX................",
"......... ....  ooOOOOOOOOOOOOXX................",
"  .... ...........ooOOOOOOOOXX..... .... ...  ..",
" ....  ...........ooOOOOOOOOXX....  ....  .. ...",
"............. ......ooOOOOXX....................",
"............  ......ooOOOOXX....................",
"........ ...   .......ooXX......   .. ..........",
"........  ............ooXX...........  . .......",
"  ...................  ................. ....  .",
". ..   ..............  ................. .... ..",
"...  ...............  .... .............  ....  ",
".... ........... .... ....  ............. .... .",
"........ ....  .  ................   ...........",
"........  .... ............. ..... .  ..........",
"..  .  ..................... ...................",
".. .. .....................  ...................",
"..........  .... ...  ....  ............. .... .",
".......... ....  ... ..............   ...  ..  .",
"......... ....  ..................  ... .... ...",
"........  ..... ................... ..  ....  ..",
"..  ............  .... .. ....  ................",
"... ... ........ .....  .  ... .................",
"......   .................   ............. ..   ",
"..  .... ..... ........................ .  .....",
"... .... .....  .. ..............  .... ........",
".................  ...  .......... .... ........",
"... ......  ...... ....   .... .................",
"... ...... .......  .... ....  .................",
"... .. ....................................   ..",
"......  ..........................   .....  . .."
};
