/* XPM */
static char *titleIS_big[] = {
/* columns rows colors chars-per-pixel */
"2 54 2 1 ",
"  c #2A303C",
". c #2A313C",
/* pixels */
"..",
"..",
"..",
"..",
"..",
"..",
"..",
"..",
"..",
"..",
"..",
"..",
"..",
"..",
"..",
"..",
"..",
"..",
"..",
"..",
". ",
". ",
"..",
". ",
"..",
"..",
"..",
"..",
"..",
"..",
". ",
"  ",
" .",
"..",
"..",
"..",
"..",
"..",
"..",
"..",
"  ",
"..",
"..",
"..",
"..",
"..",
"..",
"..",
"..",
" .",
" .",
"  ",
"..",
".."
};
